# WaveFront *.obj file (generated by Autodesk ATF)

mtllib p_phi.mtl

g phi

v 15.000000 0.000000 -26.000000
v 14.598735 3.446294 -26.000000
v 13.416408 6.708204 -26.000000
v 11.516276 9.611212 -26.000000
v 9.000000 12.000000 -26.000000
v 9.000000 22.800000 -26.000000
v 9.000000 33.600000 -26.000000
v 9.000000 44.400000 -26.000000
v 9.000000 55.200000 -26.000000
v 9.000000 66.000000 -26.000000
v 9.000000 76.800000 -26.000000
v 9.000000 87.600000 -26.000000
v 9.000000 98.400000 -26.000000
v 9.000000 109.200000 -26.000000
v 9.000000 120.000000 -26.000000
v 15.000000 120.000000 -26.000000
v 15.000000 109.090909 -26.000000
v 15.000000 98.181818 -26.000000
v 15.000000 87.272727 -26.000000
v 15.000000 76.363636 -26.000000
v 15.000000 65.454545 -26.000000
v 15.000000 54.545455 -26.000000
v 15.000000 43.636364 -26.000000
v 15.000000 32.727273 -26.000000
v 15.000000 21.818182 -26.000000
v 15.000000 10.909091 -26.000000
v 9.000000 0.000000 -18.000000
v 15.000000 0.000000 -18.000000
v 15.000000 10.909091 -18.000000
v 15.000000 21.818182 -18.000000
v 15.000000 32.727273 -18.000000
v 15.000000 43.636364 -18.000000
v 15.000000 54.545455 -18.000000
v 15.000000 65.454545 -18.000000
v 15.000000 76.363636 -18.000000
v 15.000000 87.272727 -18.000000
v 15.000000 98.181818 -18.000000
v 15.000000 109.090909 -18.000000
v 15.000000 120.000000 -18.000000
v 9.000000 120.000000 -18.000000
v 9.000000 109.090909 -18.000000
v 9.000000 98.181818 -18.000000
v 9.000000 87.272727 -18.000000
v 9.000000 76.363636 -18.000000
v 9.000000 65.454545 -18.000000
v 9.000000 54.545455 -18.000000
v 9.000000 43.636364 -18.000000
v 9.000000 32.727273 -18.000000
v 9.000000 21.818182 -18.000000
v 9.000000 10.909091 -18.000000
v 9.000000 0.000000 -26.000000
v 9.000000 6.000000 -26.000000
v 5.681436 13.882409 -26.000000
v 1.995313 14.866699 -26.000000
v -1.819896 14.889190 -26.000000
v -5.517368 13.948428 -26.000000
v -8.857894 12.105276 -26.000000
v -11.625361 9.478975 -26.000000
v -13.640728 6.239435 -26.000000
v -14.773610 2.596235 -26.000000
v -14.950717 -1.214928 -26.000000
v -14.160591 -4.947491 -26.000000
v -12.454348 -8.359978 -26.000000
v -9.942373 -11.231617 -26.000000
v -6.787179 -13.376629 -26.000000
v -3.192889 -14.656243 -26.000000
v 0.607964 -14.987674 -26.000000
v 4.369484 -14.349481 -26.000000
v 7.848322 -12.782951 -26.000000
v 10.819414 -10.389431 -26.000000
v 13.090547 -7.323768 -26.000000
v 14.514789 -3.784296 -26.000000
v -1.500000 -0.000000 -26.000000
v -1.448889 0.388229 -26.000000
v -1.299038 0.750000 -26.000000
v -1.060660 1.060660 -26.000000
v -0.750000 1.299038 -26.000000
v -0.388229 1.448889 -26.000000
v 0.000000 1.500000 -26.000000
v 0.388229 1.448889 -26.000000
v 0.750000 1.299038 -26.000000
v 1.060660 1.060660 -26.000000
v 1.299038 0.750000 -26.000000
v 1.448889 0.388229 -26.000000
v 1.500000 0.000000 -26.000000
v 1.448889 -0.388229 -26.000000
v 1.299038 -0.750000 -26.000000
v 1.060660 -1.060660 -26.000000
v 0.750000 -1.299038 -26.000000
v 0.388229 -1.448889 -26.000000
v 0.000000 -1.500000 -26.000000
v -0.388229 -1.448889 -26.000000
v -0.750000 -1.299038 -26.000000
v -1.060660 -1.060660 -26.000000
v -1.299038 -0.750000 -26.000000
v -1.448889 -0.388229 -26.000000
v 5.016428 -5.002779 -26.000000
v 5.016428 0.000000 -26.000000
v 5.016428 -2.289471 -26.000000
v 5.016428 4.930235 -26.000000
v -4.967145 4.930235 -26.000000
v -4.967145 -4.973996 -26.000000
v -5.000000 -0.000000 -1.000000
v -4.829629 1.294095 -1.000000
v -4.330127 2.500000 -1.000000
v -3.535534 3.535534 -1.000000
v -2.500000 4.330127 -1.000000
v -1.294095 4.829629 -1.000000
v 0.000000 5.000000 -1.000000
v 1.294095 4.829629 -1.000000
v 2.500000 4.330127 -1.000000
v 3.535534 3.535534 -1.000000
v 4.330127 2.500000 -1.000000
v 4.829629 1.294095 -1.000000
v 5.000000 0.000000 -1.000000
v 4.829629 -1.294095 -1.000000
v 4.330127 -2.500000 -1.000000
v 3.535534 -3.535534 -1.000000
v 2.500000 -4.330127 -1.000000
v 1.294095 -4.829629 -1.000000
v 0.000000 -5.000000 -1.000000
v -1.294095 -4.829629 -1.000000
v -2.500000 -4.330127 -1.000000
v -3.535534 -3.535534 -1.000000
v -4.330127 -2.500000 -1.000000
v -4.829629 -1.294095 -1.000000
v -1.500000 -0.000000 -1.000000
v -1.448889 -0.388229 -1.000000
v -1.299038 -0.750000 -1.000000
v -1.060660 -1.060660 -1.000000
v -0.750000 -1.299038 -1.000000
v -0.388229 -1.448889 -1.000000
v 0.000000 -1.500000 -1.000000
v 0.388229 -1.448889 -1.000000
v 0.750000 -1.299038 -1.000000
v 1.060660 -1.060660 -1.000000
v 1.299038 -0.750000 -1.000000
v 1.448889 -0.388229 -1.000000
v 1.500000 0.000000 -1.000000
v 1.448889 0.388229 -1.000000
v 1.299038 0.750000 -1.000000
v 1.060660 1.060660 -1.000000
v 0.750000 1.299038 -1.000000
v 0.388229 1.448889 -1.000000
v 0.000000 1.500000 -1.000000
v -0.388229 1.448889 -1.000000
v -0.750000 1.299038 -1.000000
v -1.060660 1.060660 -1.000000
v -1.299038 0.750000 -1.000000
v -1.448889 0.388229 -1.000000
v -5.000000 -0.000000 0.000000
v -4.829629 1.294095 0.000000
v -4.330127 2.500000 0.000000
v -3.535534 3.535534 0.000000
v -2.500000 4.330127 0.000000
v -1.294095 4.829629 0.000000
v 0.000000 5.000000 0.000000
v 1.294095 4.829629 0.000000
v 2.500000 4.330127 0.000000
v 3.535534 3.535534 0.000000
v 4.330127 2.500000 0.000000
v 4.829629 1.294095 0.000000
v 5.000000 0.000000 0.000000
v 4.829629 -1.294095 0.000000
v 4.330127 -2.500000 0.000000
v 3.535534 -3.535534 0.000000
v 2.500000 -4.330127 0.000000
v 1.294095 -4.829629 0.000000
v 0.000000 -5.000000 0.000000
v -1.294095 -4.829629 0.000000
v -2.500000 -4.330127 0.000000
v -3.535534 -3.535534 0.000000
v -4.330127 -2.500000 0.000000
v -4.829629 -1.294095 0.000000
v -1.500000 -0.000000 -9.333333
v -1.500000 -0.000000 -17.666667
v -1.448889 0.388229 -9.333333
v -1.448889 0.388229 -17.666667
v -1.299038 0.750000 -9.333333
v -1.299038 0.750000 -17.666667
v -1.060660 1.060660 -9.333333
v -1.060660 1.060660 -17.666667
v -0.750000 1.299038 -9.333333
v -0.750000 1.299038 -17.666667
v -0.388229 1.448889 -9.333333
v -0.388229 1.448889 -17.666667
v 0.000000 1.500000 -9.333333
v 0.000000 1.500000 -17.666667
v 0.388229 1.448889 -9.333333
v 0.388229 1.448889 -17.666667
v 0.750000 1.299038 -9.333333
v 0.750000 1.299038 -17.666667
v 1.060660 1.060660 -9.333333
v 1.060660 1.060660 -17.666667
v 1.299038 0.750000 -9.333333
v 1.299038 0.750000 -17.666667
v 1.448889 0.388229 -9.333333
v 1.448889 0.388229 -17.666667
v 1.500000 0.000000 -9.333333
v 1.500000 0.000000 -17.666667
v 1.448889 -0.388229 -9.333333
v 1.448889 -0.388229 -17.666667
v 1.299038 -0.750000 -9.333333
v 1.299038 -0.750000 -17.666667
v 1.060660 -1.060660 -9.333333
v 1.060660 -1.060660 -17.666667
v 0.750000 -1.299038 -9.333333
v 0.750000 -1.299038 -17.666667
v 0.388229 -1.448889 -9.333333
v 0.388229 -1.448889 -17.666667
v 0.000000 -1.500000 -9.333333
v 0.000000 -1.500000 -17.666667
v -0.388229 -1.448889 -9.333333
v -0.388229 -1.448889 -17.666667
v -0.750000 -1.299038 -9.333333
v -0.750000 -1.299038 -17.666667
v -1.060660 -1.060660 -9.333333
v -1.060660 -1.060660 -17.666667
v -1.299038 -0.750000 -9.333333
v -1.299038 -0.750000 -17.666667
v -1.448889 -0.388229 -9.333333
v -1.448889 -0.388229 -17.666667
v -15.000000 -0.000000 -29.000000
v -14.488887 -3.882286 -29.000000
v -12.990381 -7.500000 -29.000000
v -10.606602 -10.606602 -29.000000
v -7.500000 -12.990381 -29.000000
v -3.882286 -14.488887 -29.000000
v 0.000000 -15.000000 -29.000000
v 3.882286 -14.488887 -29.000000
v 7.500000 -12.990381 -29.000000
v 10.606602 -10.606602 -29.000000
v 12.990381 -7.500000 -29.000000
v 14.488887 -3.882286 -29.000000
v 15.000000 0.000000 -29.000000
v 14.488887 3.882286 -29.000000
v 12.990381 7.500000 -29.000000
v 10.606602 10.606602 -29.000000
v 7.500000 12.990381 -29.000000
v 3.882286 14.488887 -29.000000
v 0.000000 15.000000 -29.000000
v -3.882286 14.488887 -29.000000
v -7.500000 12.990381 -29.000000
v -10.606602 10.606602 -29.000000
v -12.990381 7.500000 -29.000000
v -14.488887 3.882286 -29.000000
v 5.000000 -5.000000 -29.000000
v -5.000000 -5.000000 -29.000000
v -5.000000 5.000000 -29.000000
v 5.000000 5.000000 -29.000000
vt 0.000000 0.000000 0.000000
vt 0.401265 3.446294 0.000000
vt 0.000000 10.909091 0.000000
vt 1.583592 6.708204 0.000000
vt 3.483724 9.611212 0.000000
vt 0.000000 21.818182 0.000000
vt 6.000000 12.000000 0.000000
vt 6.000000 22.800000 0.000000
vt 0.000000 32.727273 0.000000
vt 6.000000 33.600000 0.000000
vt 0.000000 43.636364 0.000000
vt 6.000000 44.400000 0.000000
vt 0.000000 54.545455 0.000000
vt 6.000000 55.200000 0.000000
vt 0.000000 65.454545 0.000000
vt 6.000000 66.000000 0.000000
vt 0.000000 76.363636 0.000000
vt 6.000000 76.800000 0.000000
vt 0.000000 87.272727 0.000000
vt 6.000000 87.600000 0.000000
vt 0.000000 98.181818 0.000000
vt 6.000000 98.400000 0.000000
vt 0.000000 109.090909 0.000000
vt 6.000000 109.200000 0.000000
vt 0.000000 120.000000 0.000000
vt 6.000000 120.000000 0.000000
vt 0.000000 0.000000 0.000000
vt 6.000000 0.000000 0.000000
vt 0.000000 10.909091 0.000000
vt 6.000000 10.909091 0.000000
vt 0.000000 21.818182 0.000000
vt 6.000000 21.818182 0.000000
vt 0.000000 32.727273 0.000000
vt 6.000000 32.727273 0.000000
vt 0.000000 43.636364 0.000000
vt 6.000000 43.636364 0.000000
vt 0.000000 54.545455 0.000000
vt 6.000000 54.545455 0.000000
vt 0.000000 65.454545 0.000000
vt 6.000000 65.454545 0.000000
vt 0.000000 76.363636 0.000000
vt 6.000000 76.363636 0.000000
vt 0.000000 87.272727 0.000000
vt 6.000000 87.272727 0.000000
vt 0.000000 98.181818 0.000000
vt 6.000000 98.181818 0.000000
vt 0.000000 109.090909 0.000000
vt 6.000000 109.090909 0.000000
vt 0.000000 120.000000 0.000000
vt 6.000000 120.000000 0.000000
vt 0.000000 0.000000 0.000000
vt 8.000000 0.000000 0.000000
vt 0.000000 6.000000 0.000000
vt 8.000000 10.909091 0.000000
vt 0.000000 12.000000 0.000000
vt 8.000000 21.818182 0.000000
vt 0.000000 22.800000 0.000000
vt 8.000000 32.727273 0.000000
vt 0.000000 33.600000 0.000000
vt 8.000000 43.636364 0.000000
vt 0.000000 44.400000 0.000000
vt 8.000000 54.545455 0.000000
vt 0.000000 55.200000 0.000000
vt 8.000000 65.454545 0.000000
vt 0.000000 66.000000 0.000000
vt 8.000000 76.363636 0.000000
vt 0.000000 76.800000 0.000000
vt 8.000000 87.272727 0.000000
vt 0.000000 87.600000 0.000000
vt 8.000000 98.181818 0.000000
vt 0.000000 98.400000 0.000000
vt 8.000000 109.090909 0.000000
vt 0.000000 109.200000 0.000000
vt 8.000000 120.000000 0.000000
vt 0.000000 120.000000 0.000000
vt 0.000000 0.000000 0.000000
vt 8.000000 0.000000 0.000000
vt 0.000000 10.909091 0.000000
vt 8.000000 10.909091 0.000000
vt 0.000000 21.818182 0.000000
vt 8.000000 21.818182 0.000000
vt 0.000000 32.727273 0.000000
vt 8.000000 32.727273 0.000000
vt 0.000000 43.636364 0.000000
vt 8.000000 43.636364 0.000000
vt 0.000000 54.545455 0.000000
vt 8.000000 54.545455 0.000000
vt 0.000000 65.454545 0.000000
vt 8.000000 65.454545 0.000000
vt 0.000000 76.363636 0.000000
vt 8.000000 76.363636 0.000000
vt 0.000000 87.272727 0.000000
vt 8.000000 87.272727 0.000000
vt 0.000000 98.181818 0.000000
vt 8.000000 98.181818 0.000000
vt 0.000000 109.090909 0.000000
vt 8.000000 109.090909 0.000000
vt 0.000000 120.000000 0.000000
vt 8.000000 120.000000 0.000000
vt 4.000000 3.000000 0.000000
vt -4.000000 3.000000 0.000000
vt 4.000000 -3.000000 0.000000
vt -4.000000 -3.000000 0.000000
vt -3.000000 -4.000000 0.000000
vt 3.000000 -4.000000 0.000000
vt -3.000000 4.000000 0.000000
vt 3.000000 4.000000 0.000000
vt 15.000000 0.000000 0.000000
vt 9.000000 0.000000 0.000000
vt 14.514789 -3.784296 0.000000
vt 13.090547 -7.323768 0.000000
vt 5.016428 -5.002779 0.000000
vt 10.819414 -10.389431 0.000000
vt 7.848322 -12.782951 0.000000
vt 4.369484 -14.349481 0.000000
vt 0.607964 -14.987674 0.000000
vt -4.967145 -4.973996 0.000000
vt -3.192889 -14.656243 0.000000
vt -6.787179 -13.376629 0.000000
vt -9.942373 -11.231617 0.000000
vt -12.454348 -8.359978 0.000000
vt -14.160591 -4.947491 0.000000
vt -14.950717 -1.214928 0.000000
vt -4.967145 4.930235 0.000000
vt -14.773610 2.596235 0.000000
vt -13.640728 6.239435 0.000000
vt -11.625361 9.478975 0.000000
vt -8.857894 12.105276 0.000000
vt -5.517368 13.948428 0.000000
vt -1.819896 14.889190 0.000000
vt 5.016428 4.930235 0.000000
vt 1.995313 14.866699 0.000000
vt 5.681436 13.882409 0.000000
vt 9.000000 12.000000 0.000000
vt 9.000000 6.000000 0.000000
vt 5.016428 0.000000 0.000000
vt 5.016428 -2.289471 0.000000
vt 1.448889 -0.388229 0.000000
vt 1.299038 -0.750000 0.000000
vt -1.448889 0.388229 0.000000
vt -1.500000 -0.000000 0.000000
vt -1.448889 -0.388229 0.000000
vt -1.299038 -0.750000 0.000000
vt -1.060660 -1.060660 0.000000
vt -0.750000 -1.299038 0.000000
vt -0.388229 -1.448889 0.000000
vt 0.000000 -1.500000 0.000000
vt 0.388229 -1.448889 0.000000
vt 0.750000 -1.299038 0.000000
vt 1.060660 -1.060660 0.000000
vt -1.299038 0.750000 0.000000
vt -1.060660 1.060660 0.000000
vt -0.750000 1.299038 0.000000
vt -0.388229 1.448889 0.000000
vt 0.000000 1.500000 0.000000
vt 0.388229 1.448889 0.000000
vt 0.750000 1.299038 0.000000
vt 1.060660 1.060660 0.000000
vt 1.299038 0.750000 0.000000
vt 1.448889 0.388229 0.000000
vt 1.500000 0.000000 0.000000
vt 4.829629 1.294095 0.000000
vt 1.448889 0.388229 0.000000
vt 5.000000 -0.000000 0.000000
vt 1.500000 -0.000000 0.000000
vt 4.829629 -1.294095 0.000000
vt 1.448889 -0.388229 0.000000
vt 1.299038 -0.750000 0.000000
vt 1.299038 0.750000 0.000000
vt 4.330127 2.500000 0.000000
vt 1.060660 1.060660 0.000000
vt 3.535534 3.535534 0.000000
vt 0.750000 1.299038 0.000000
vt 2.500000 4.330127 0.000000
vt 0.388229 1.448889 0.000000
vt 1.294095 4.829629 0.000000
vt -0.000000 1.500000 0.000000
vt -0.000000 5.000000 0.000000
vt -1.294095 4.829629 0.000000
vt -0.388229 1.448889 0.000000
vt -2.500000 4.330127 0.000000
vt -0.750000 1.299038 0.000000
vt -3.535534 3.535534 0.000000
vt -1.060660 1.060660 0.000000
vt -4.330127 2.500000 0.000000
vt -1.299038 0.750000 0.000000
vt -4.829629 1.294095 0.000000
vt -1.448889 0.388229 0.000000
vt -5.000000 0.000000 0.000000
vt -1.500000 0.000000 0.000000
vt -1.448889 -0.388229 0.000000
vt -4.829629 -1.294095 0.000000
vt -1.299038 -0.750000 0.000000
vt -4.330127 -2.500000 0.000000
vt -1.060660 -1.060660 0.000000
vt -3.535534 -3.535534 0.000000
vt -0.750000 -1.299038 0.000000
vt -2.500000 -4.330127 0.000000
vt -0.388229 -1.448889 0.000000
vt -1.294095 -4.829629 0.000000
vt -0.000000 -1.500000 0.000000
vt -0.000000 -5.000000 0.000000
vt 1.294095 -4.829629 0.000000
vt 0.388229 -1.448889 0.000000
vt 2.500000 -4.330127 0.000000
vt 0.750000 -1.299038 0.000000
vt 3.535534 -3.535534 0.000000
vt 1.060660 -1.060660 0.000000
vt 4.330127 -2.500000 0.000000
vt -1.000000 14.398966 0.000000
vt -0.000000 14.398966 0.000000
vt -1.000000 15.707963 0.000000
vt -0.000000 15.707963 0.000000
vt -1.000000 -15.707963 0.000000
vt -0.000000 -15.707963 0.000000
vt -1.000000 -14.398966 0.000000
vt -0.000000 -14.398966 0.000000
vt -1.000000 -13.089969 0.000000
vt -0.000000 -13.089969 0.000000
vt -1.000000 -11.780972 0.000000
vt -0.000000 -11.780972 0.000000
vt -1.000000 -10.471976 0.000000
vt -0.000000 -10.471976 0.000000
vt -1.000000 -9.162979 0.000000
vt -0.000000 -9.162979 0.000000
vt -1.000000 -7.853982 0.000000
vt -0.000000 -7.853982 0.000000
vt -1.000000 -6.544985 0.000000
vt -0.000000 -6.544985 0.000000
vt -1.000000 -5.235988 0.000000
vt -0.000000 -5.235988 0.000000
vt -1.000000 -3.926991 0.000000
vt -0.000000 -3.926991 0.000000
vt -1.000000 -2.617994 0.000000
vt -0.000000 -2.617994 0.000000
vt -1.000000 -1.308997 0.000000
vt -0.000000 -1.308997 0.000000
vt -1.000000 0.000000 0.000000
vt -0.000000 0.000000 0.000000
vt -1.000000 1.308997 0.000000
vt -0.000000 1.308997 0.000000
vt -1.000000 2.617994 0.000000
vt -0.000000 2.617994 0.000000
vt -1.000000 3.926991 0.000000
vt -0.000000 3.926991 0.000000
vt -1.000000 5.235988 0.000000
vt -0.000000 5.235988 0.000000
vt -1.000000 6.544985 0.000000
vt -0.000000 6.544985 0.000000
vt -1.000000 7.853982 0.000000
vt -0.000000 7.853982 0.000000
vt -1.000000 9.162979 0.000000
vt -0.000000 9.162979 0.000000
vt -1.000000 10.471976 0.000000
vt -0.000000 10.471976 0.000000
vt -1.000000 11.780972 0.000000
vt -0.000000 11.780972 0.000000
vt -1.000000 13.089969 0.000000
vt -0.000000 13.089969 0.000000
vt -4.829629 -1.294095 0.000000
vt 4.829629 -1.294095 0.000000
vt -5.000000 -0.000000 0.000000
vt 5.000000 0.000000 0.000000
vt -4.829629 1.294095 0.000000
vt 4.829629 1.294095 0.000000
vt -4.330127 2.500000 0.000000
vt 4.330127 2.500000 0.000000
vt -3.535534 3.535534 0.000000
vt 3.535534 3.535534 0.000000
vt -2.500000 4.330127 0.000000
vt 2.500000 4.330127 0.000000
vt -1.294095 4.829629 0.000000
vt 1.294095 4.829629 0.000000
vt 0.000000 5.000000 0.000000
vt 4.330127 -2.500000 0.000000
vt -4.330127 -2.500000 0.000000
vt 3.535534 -3.535534 0.000000
vt -3.535534 -3.535534 0.000000
vt 2.500000 -4.330127 0.000000
vt -2.500000 -4.330127 0.000000
vt 1.294095 -4.829629 0.000000
vt -1.294095 -4.829629 0.000000
vt 0.000000 -5.000000 0.000000
vt -25.000000 4.319690 0.000000
vt -16.666667 4.319690 0.000000
vt -25.000000 4.712389 0.000000
vt -16.666667 4.712389 0.000000
vt -25.000000 -4.712389 0.000000
vt -16.666667 -4.712389 0.000000
vt -25.000000 -4.319690 0.000000
vt -16.666667 -4.319690 0.000000
vt -25.000000 -3.926991 0.000000
vt -16.666667 -3.926991 0.000000
vt -25.000000 -3.534292 0.000000
vt -16.666667 -3.534292 0.000000
vt -25.000000 -3.141593 0.000000
vt -16.666667 -3.141593 0.000000
vt -25.000000 -2.748894 0.000000
vt -16.666667 -2.748894 0.000000
vt -25.000000 -2.356194 0.000000
vt -16.666667 -2.356194 0.000000
vt -25.000000 -1.963495 0.000000
vt -16.666667 -1.963495 0.000000
vt -25.000000 -1.570796 0.000000
vt -16.666667 -1.570796 0.000000
vt -25.000000 -1.178097 0.000000
vt -16.666667 -1.178097 0.000000
vt -25.000000 -0.785398 0.000000
vt -16.666667 -0.785398 0.000000
vt -25.000000 -0.392699 0.000000
vt -16.666667 -0.392699 0.000000
vt -25.000000 0.000000 0.000000
vt -16.666667 0.000000 0.000000
vt -25.000000 0.392699 0.000000
vt -16.666667 0.392699 0.000000
vt -25.000000 0.785398 0.000000
vt -16.666667 0.785398 0.000000
vt -25.000000 1.178097 0.000000
vt -16.666667 1.178097 0.000000
vt -25.000000 1.570796 0.000000
vt -16.666667 1.570796 0.000000
vt -25.000000 1.963495 0.000000
vt -16.666667 1.963495 0.000000
vt -25.000000 2.356194 0.000000
vt -16.666667 2.356194 0.000000
vt -25.000000 2.748894 0.000000
vt -16.666667 2.748894 0.000000
vt -25.000000 3.141593 0.000000
vt -16.666667 3.141593 0.000000
vt -25.000000 3.534292 0.000000
vt -16.666667 3.534292 0.000000
vt -25.000000 3.926991 0.000000
vt -16.666667 3.926991 0.000000
vt -0.000000 -4.319690 0.000000
vt -8.333333 -4.319690 0.000000
vt -0.000000 -4.712389 0.000000
vt -8.333333 -4.712389 0.000000
vt -0.000000 4.712389 0.000000
vt -8.333333 4.712389 0.000000
vt -0.000000 4.319690 0.000000
vt -8.333333 4.319690 0.000000
vt -0.000000 3.926991 0.000000
vt -8.333333 3.926991 0.000000
vt -0.000000 3.534292 0.000000
vt -8.333333 3.534292 0.000000
vt -0.000000 3.141593 0.000000
vt -8.333333 3.141593 0.000000
vt -0.000000 2.748894 0.000000
vt -8.333333 2.748894 0.000000
vt -0.000000 2.356194 0.000000
vt -8.333333 2.356194 0.000000
vt -0.000000 1.963495 0.000000
vt -8.333333 1.963495 0.000000
vt -0.000000 1.570796 0.000000
vt -8.333333 1.570796 0.000000
vt -0.000000 1.178097 0.000000
vt -8.333333 1.178097 0.000000
vt -0.000000 0.785398 0.000000
vt -8.333333 0.785398 0.000000
vt -0.000000 0.392699 0.000000
vt -8.333333 0.392699 0.000000
vt -0.000000 0.000000 0.000000
vt -8.333333 0.000000 0.000000
vt -0.000000 -0.392699 0.000000
vt -8.333333 -0.392699 0.000000
vt -0.000000 -0.785398 0.000000
vt -8.333333 -0.785398 0.000000
vt -0.000000 -1.178097 0.000000
vt -8.333333 -1.178097 0.000000
vt -0.000000 -1.570796 0.000000
vt -8.333333 -1.570796 0.000000
vt -0.000000 -1.963495 0.000000
vt -8.333333 -1.963495 0.000000
vt -0.000000 -2.356194 0.000000
vt -8.333333 -2.356194 0.000000
vt -0.000000 -2.748894 0.000000
vt -8.333333 -2.748894 0.000000
vt -0.000000 -3.141593 0.000000
vt -8.333333 -3.141593 0.000000
vt -0.000000 -3.534292 0.000000
vt -8.333333 -3.534292 0.000000
vt -0.000000 -3.926991 0.000000
vt -8.333333 -3.926991 0.000000
vt -3.000000 43.196899 0.000000
vt 0.000000 45.907629 0.000000
vt -3.000000 47.123890 0.000000
vt -3.000000 -47.123890 0.000000
vt 0.000000 -48.340150 0.000000
vt -0.000000 -44.514514 0.000000
vt -3.000000 -43.196899 0.000000
vt -0.000000 -40.688879 0.000000
vt -3.000000 -39.269908 0.000000
vt -0.000000 -36.863243 0.000000
vt -3.000000 -35.342917 0.000000
vt -0.000000 -33.037607 0.000000
vt -3.000000 -31.415927 0.000000
vt -0.000000 -29.211971 0.000000
vt -3.000000 -27.488936 0.000000
vt -0.000000 -25.386336 0.000000
vt -3.000000 -23.561945 0.000000
vt -0.000000 -21.560700 0.000000
vt -3.000000 -19.634954 0.000000
vt -0.000000 -17.735064 0.000000
vt -3.000000 -15.707963 0.000000
vt -0.000000 -13.909428 0.000000
vt -3.000000 -11.780972 0.000000
vt -0.000000 -10.432071 0.000000
vt -3.000000 -7.853982 0.000000
vt -0.000000 -6.954714 0.000000
vt -3.000000 -3.926991 0.000000
vt -0.000000 -3.477357 0.000000
vt -3.000000 0.000000 0.000000
vt -0.000000 0.000000 0.000000
vt -0.000000 3.825636 0.000000
vt 0.000000 42.081994 0.000000
vt -3.000000 39.269908 0.000000
vt 0.000000 38.256358 0.000000
vt -3.000000 35.342917 0.000000
vt 0.000000 34.430722 0.000000
vt -3.000000 31.415927 0.000000
vt 0.000000 30.605086 0.000000
vt -3.000000 27.488936 0.000000
vt 0.000000 26.779450 0.000000
vt -3.000000 23.561945 0.000000
vt -0.000000 22.953815 0.000000
vt -3.000000 19.634954 0.000000
vt -0.000000 19.128179 0.000000
vt -3.000000 15.707963 0.000000
vt -0.000000 15.302543 0.000000
vt -3.000000 11.780972 0.000000
vt -0.000000 11.476907 0.000000
vt -3.000000 7.853982 0.000000
vt -0.000000 7.651272 0.000000
vt -3.000000 3.926991 0.000000
vt 14.488887 3.882286 0.000000
vt 5.000000 5.000000 0.000000
vt 15.000000 -0.000000 0.000000
vt 5.000000 -5.000000 0.000000
vt 14.488887 -3.882286 0.000000
vt 12.990381 -7.500000 0.000000
vt 10.606602 -10.606602 0.000000
vt 7.500000 -12.990381 0.000000
vt 3.882286 -14.488887 0.000000
vt -0.000000 -15.000000 0.000000
vt -5.000000 -5.000000 0.000000
vt -3.882286 -14.488887 0.000000
vt -7.500000 -12.990381 0.000000
vt -10.606602 -10.606602 0.000000
vt -12.990381 -7.500000 0.000000
vt -14.488887 -3.882286 0.000000
vt -15.000000 0.000000 0.000000
vt -5.000000 5.000000 0.000000
vt -14.488887 3.882286 0.000000
vt -12.990381 7.500000 0.000000
vt -10.606602 10.606602 0.000000
vt -7.500000 12.990381 0.000000
vt -3.882286 14.488887 0.000000
vt -0.000000 15.000000 0.000000
vt 3.882286 14.488887 0.000000
vt 7.500000 12.990381 0.000000
vt 10.606602 10.606602 0.000000
vt 12.990381 7.500000 0.000000
vn 0.000000 0.000000 -1.000000
vn 0.000000 0.000000 -1.000000
vn 0.000000 0.000000 -1.000000
vn 0.000000 0.000000 -1.000000
vn 0.000000 0.000000 -1.000000
vn 0.000000 0.000000 -1.000000
vn 0.000000 0.000000 -1.000000
vn 0.000000 0.000000 -1.000000
vn 0.000000 0.000000 -1.000000
vn 0.000000 0.000000 -1.000000
vn 0.000000 0.000000 -1.000000
vn 0.000000 0.000000 -1.000000
vn 0.000000 0.000000 -1.000000
vn 0.000000 0.000000 -1.000000
vn 0.000000 0.000000 -1.000000
vn 0.000000 0.000000 -1.000000
vn 0.000000 0.000000 -1.000000
vn 0.000000 0.000000 -1.000000
vn 0.000000 0.000000 -1.000000
vn 0.000000 0.000000 -1.000000
vn 0.000000 0.000000 -1.000000
vn 0.000000 0.000000 -1.000000
vn 0.000000 0.000000 -1.000000
vn 0.000000 0.000000 -1.000000
vn 0.000000 0.000000 -1.000000
vn 0.000000 0.000000 -1.000000
vn 0.000000 0.000000 1.000000
vn 0.000000 0.000000 1.000000
vn 0.000000 0.000000 1.000000
vn 0.000000 0.000000 1.000000
vn 0.000000 0.000000 1.000000
vn 0.000000 0.000000 1.000000
vn 0.000000 0.000000 1.000000
vn 0.000000 0.000000 1.000000
vn 0.000000 0.000000 1.000000
vn 0.000000 0.000000 1.000000
vn 0.000000 0.000000 1.000000
vn 0.000000 0.000000 1.000000
vn 0.000000 0.000000 1.000000
vn 0.000000 0.000000 1.000000
vn 0.000000 0.000000 1.000000
vn 0.000000 0.000000 1.000000
vn 0.000000 0.000000 1.000000
vn 0.000000 0.000000 1.000000
vn 0.000000 0.000000 1.000000
vn 0.000000 0.000000 1.000000
vn 0.000000 0.000000 1.000000
vn 0.000000 0.000000 1.000000
vn 0.000000 0.000000 1.000000
vn 0.000000 0.000000 1.000000
vn -1.000000 0.000000 0.000000
vn -1.000000 0.000000 0.000000
vn -1.000000 0.000000 0.000000
vn -1.000000 0.000000 0.000000
vn -1.000000 0.000000 0.000000
vn -1.000000 0.000000 0.000000
vn -1.000000 0.000000 0.000000
vn -1.000000 0.000000 0.000000
vn -1.000000 0.000000 0.000000
vn -1.000000 0.000000 0.000000
vn -1.000000 0.000000 0.000000
vn -1.000000 0.000000 0.000000
vn -1.000000 0.000000 0.000000
vn -1.000000 0.000000 0.000000
vn -1.000000 0.000000 0.000000
vn -1.000000 0.000000 0.000000
vn -1.000000 0.000000 0.000000
vn -1.000000 0.000000 0.000000
vn -1.000000 0.000000 0.000000
vn -1.000000 0.000000 0.000000
vn -1.000000 0.000000 0.000000
vn -1.000000 0.000000 0.000000
vn -1.000000 0.000000 0.000000
vn -1.000000 0.000000 0.000000
vn -1.000000 0.000000 0.000000
vn 1.000000 0.000000 0.000000
vn 1.000000 0.000000 0.000000
vn 1.000000 0.000000 0.000000
vn 1.000000 0.000000 0.000000
vn 1.000000 0.000000 0.000000
vn 1.000000 0.000000 0.000000
vn 1.000000 0.000000 0.000000
vn 1.000000 0.000000 0.000000
vn 1.000000 0.000000 0.000000
vn 1.000000 0.000000 0.000000
vn 1.000000 0.000000 0.000000
vn 1.000000 0.000000 0.000000
vn 1.000000 0.000000 0.000000
vn 1.000000 0.000000 0.000000
vn 1.000000 0.000000 0.000000
vn 1.000000 0.000000 0.000000
vn 1.000000 0.000000 0.000000
vn 1.000000 0.000000 0.000000
vn 1.000000 0.000000 0.000000
vn 1.000000 0.000000 0.000000
vn 1.000000 0.000000 0.000000
vn 1.000000 0.000000 0.000000
vn 1.000000 0.000000 0.000000
vn 1.000000 0.000000 0.000000
vn 0.000000 1.000000 0.000000
vn 0.000000 1.000000 0.000000
vn 0.000000 1.000000 0.000000
vn 0.000000 1.000000 0.000000
vn -0.000000 -1.000000 -0.000000
vn -0.000000 -1.000000 -0.000000
vn -0.000000 -1.000000 -0.000000
vn -0.000000 -1.000000 -0.000000
vn 0.000000 0.000000 1.000000
vn 0.000000 0.000000 1.000000
vn 0.000000 0.000000 1.000000
vn 0.000000 0.000000 1.000000
vn 0.000000 0.000000 1.000000
vn 0.000000 0.000000 1.000000
vn 0.000000 0.000000 1.000000
vn 0.000000 0.000000 1.000000
vn 0.000000 0.000000 1.000000
vn 0.000000 0.000000 1.000000
vn 0.000000 0.000000 1.000000
vn 0.000000 0.000000 1.000000
vn 0.000000 0.000000 1.000000
vn 0.000000 0.000000 1.000000
vn 0.000000 0.000000 1.000000
vn 0.000000 0.000000 1.000000
vn 0.000000 0.000000 1.000000
vn 0.000000 0.000000 1.000000
vn 0.000000 0.000000 1.000000
vn 0.000000 0.000000 1.000000
vn 0.000000 0.000000 1.000000
vn 0.000000 0.000000 1.000000
vn 0.000000 0.000000 1.000000
vn 0.000000 0.000000 1.000000
vn 0.000000 0.000000 1.000000
vn 0.000000 0.000000 1.000000
vn 0.000000 0.000000 1.000000
vn 0.000000 0.000000 1.000000
vn 0.000000 0.000000 1.000000
vn 0.000000 0.000000 1.000000
vn 0.000000 0.000000 1.000000
vn 0.000000 0.000000 1.000000
vn 0.000000 0.000000 1.000000
vn 0.000000 0.000000 1.000000
vn 0.000000 0.000000 1.000000
vn 0.000000 0.000000 1.000000
vn 0.000000 0.000000 1.000000
vn 0.000000 0.000000 1.000000
vn 0.000000 0.000000 1.000000
vn 0.000000 0.000000 1.000000
vn 0.000000 0.000000 1.000000
vn 0.000000 0.000000 1.000000
vn 0.000000 0.000000 1.000000
vn 0.000000 0.000000 1.000000
vn 0.000000 0.000000 1.000000
vn 0.000000 0.000000 1.000000
vn 0.000000 0.000000 1.000000
vn 0.000000 0.000000 1.000000
vn 0.000000 0.000000 1.000000
vn 0.000000 0.000000 1.000000
vn 0.000000 0.000000 1.000000
vn 0.000000 0.000000 1.000000
vn 0.000000 0.000000 1.000000
vn 0.000000 0.000000 1.000000
vn -0.000000 -0.000000 -1.000000
vn -0.000000 -0.000000 -1.000000
vn -0.000000 -0.000000 -1.000000
vn -0.000000 -0.000000 -1.000000
vn -0.000000 -0.000000 -1.000000
vn -0.000000 -0.000000 -1.000000
vn -0.000000 -0.000000 -1.000000
vn -0.000000 -0.000000 -1.000000
vn -0.000000 -0.000000 -1.000000
vn -0.000000 -0.000000 -1.000000
vn -0.000000 -0.000000 -1.000000
vn -0.000000 -0.000000 -1.000000
vn -0.000000 -0.000000 -1.000000
vn -0.000000 -0.000000 -1.000000
vn -0.000000 -0.000000 -1.000000
vn -0.000000 -0.000000 -1.000000
vn -0.000000 -0.000000 -1.000000
vn -0.000000 -0.000000 -1.000000
vn -0.000000 -0.000000 -1.000000
vn -0.000000 -0.000000 -1.000000
vn -0.000000 -0.000000 -1.000000
vn -0.000000 -0.000000 -1.000000
vn -0.000000 -0.000000 -1.000000
vn -0.000000 -0.000000 -1.000000
vn -0.000000 -0.000000 -1.000000
vn -0.000000 -0.000000 -1.000000
vn -0.000000 -0.000000 -1.000000
vn -0.000000 -0.000000 -1.000000
vn -0.000000 -0.000000 -1.000000
vn -0.000000 -0.000000 -1.000000
vn -0.000000 -0.000000 -1.000000
vn -0.000000 -0.000000 -1.000000
vn -0.000000 -0.000000 -1.000000
vn -0.000000 -0.000000 -1.000000
vn -0.000000 -0.000000 -1.000000
vn -0.000000 -0.000000 -1.000000
vn -0.000000 -0.000000 -1.000000
vn -0.000000 -0.000000 -1.000000
vn -0.000000 -0.000000 -1.000000
vn -0.000000 -0.000000 -1.000000
vn -0.000000 -0.000000 -1.000000
vn -0.000000 -0.000000 -1.000000
vn -0.000000 -0.000000 -1.000000
vn -0.000000 -0.000000 -1.000000
vn -0.000000 -0.000000 -1.000000
vn -0.000000 -0.000000 -1.000000
vn -0.000000 -0.000000 -1.000000
vn -0.000000 -0.000000 -1.000000
vn -0.965926 0.258819 -0.000000
vn -0.965926 0.258819 -0.000000
vn -1.000000 0.000000 -0.000000
vn -1.000000 0.000000 -0.000000
vn -0.965926 -0.258819 0.000000
vn -0.965926 -0.258819 0.000000
vn -0.866025 -0.500000 0.000000
vn -0.866025 -0.500000 0.000000
vn -0.707107 -0.707107 0.000000
vn -0.707107 -0.707107 0.000000
vn -0.500000 -0.866025 0.000000
vn -0.500000 -0.866025 0.000000
vn -0.258819 -0.965926 0.000000
vn -0.258819 -0.965926 0.000000
vn 0.000000 -1.000000 -0.000000
vn 0.000000 -1.000000 -0.000000
vn 0.258819 -0.965926 -0.000000
vn 0.258819 -0.965926 -0.000000
vn 0.500000 -0.866025 -0.000000
vn 0.500000 -0.866025 -0.000000
vn 0.707107 -0.707107 -0.000000
vn 0.707107 -0.707107 -0.000000
vn 0.866025 -0.500000 -0.000000
vn 0.866025 -0.500000 -0.000000
vn 0.965926 -0.258819 -0.000000
vn 0.965926 -0.258819 -0.000000
vn 1.000000 -0.000000 -0.000000
vn 1.000000 -0.000000 -0.000000
vn 0.965926 0.258819 -0.000000
vn 0.965926 0.258819 -0.000000
vn 0.866025 0.500000 -0.000000
vn 0.866025 0.500000 -0.000000
vn 0.707107 0.707107 -0.000000
vn 0.707107 0.707107 -0.000000
vn 0.500000 0.866025 -0.000000
vn 0.500000 0.866025 -0.000000
vn 0.258819 0.965926 -0.000000
vn 0.258819 0.965926 -0.000000
vn 0.000000 1.000000 -0.000000
vn 0.000000 1.000000 -0.000000
vn -0.258819 0.965926 -0.000000
vn -0.258819 0.965926 -0.000000
vn -0.500000 0.866025 -0.000000
vn -0.500000 0.866025 -0.000000
vn -0.707107 0.707107 -0.000000
vn -0.707107 0.707107 -0.000000
vn -0.866025 0.500000 -0.000000
vn -0.866025 0.500000 -0.000000
vn 0.000000 0.000000 1.000000
vn 0.000000 0.000000 1.000000
vn 0.000000 0.000000 1.000000
vn 0.000000 0.000000 1.000000
vn 0.000000 0.000000 1.000000
vn 0.000000 0.000000 1.000000
vn 0.000000 0.000000 1.000000
vn 0.000000 0.000000 1.000000
vn 0.000000 0.000000 1.000000
vn 0.000000 0.000000 1.000000
vn 0.000000 0.000000 1.000000
vn 0.000000 0.000000 1.000000
vn 0.000000 0.000000 1.000000
vn 0.000000 0.000000 1.000000
vn 0.000000 0.000000 1.000000
vn 0.000000 0.000000 1.000000
vn 0.000000 0.000000 1.000000
vn 0.000000 0.000000 1.000000
vn 0.000000 0.000000 1.000000
vn 0.000000 0.000000 1.000000
vn 0.000000 0.000000 1.000000
vn 0.000000 0.000000 1.000000
vn 0.000000 0.000000 1.000000
vn 0.000000 0.000000 1.000000
vn -0.965926 0.258819 -0.000000
vn -0.965926 0.258819 -0.000000
vn -1.000000 0.000000 -0.000000
vn -1.000000 0.000000 -0.000000
vn -0.965926 -0.258819 0.000000
vn -0.965926 -0.258819 0.000000
vn -0.866025 -0.500000 0.000000
vn -0.866025 -0.500000 0.000000
vn -0.707107 -0.707107 0.000000
vn -0.707107 -0.707107 0.000000
vn -0.500000 -0.866025 0.000000
vn -0.500000 -0.866025 0.000000
vn -0.258819 -0.965926 0.000000
vn -0.258819 -0.965926 0.000000
vn 0.000000 -1.000000 -0.000000
vn 0.000000 -1.000000 -0.000000
vn 0.258819 -0.965926 -0.000000
vn 0.258819 -0.965926 -0.000000
vn 0.500000 -0.866025 -0.000000
vn 0.500000 -0.866025 -0.000000
vn 0.707107 -0.707107 -0.000000
vn 0.707107 -0.707107 -0.000000
vn 0.866025 -0.500000 -0.000000
vn 0.866025 -0.500000 -0.000000
vn 0.965926 -0.258819 -0.000000
vn 0.965926 -0.258819 -0.000000
vn 1.000000 -0.000000 -0.000000
vn 1.000000 -0.000000 -0.000000
vn 0.965926 0.258819 -0.000000
vn 0.965926 0.258819 -0.000000
vn 0.866025 0.500000 -0.000000
vn 0.866025 0.500000 -0.000000
vn 0.707107 0.707107 -0.000000
vn 0.707107 0.707107 -0.000000
vn 0.500000 0.866025 -0.000000
vn 0.500000 0.866025 -0.000000
vn 0.258819 0.965926 -0.000000
vn 0.258819 0.965926 -0.000000
vn 0.000000 1.000000 -0.000000
vn 0.000000 1.000000 -0.000000
vn -0.258819 0.965926 -0.000000
vn -0.258819 0.965926 -0.000000
vn -0.500000 0.866025 -0.000000
vn -0.500000 0.866025 -0.000000
vn -0.707107 0.707107 -0.000000
vn -0.707107 0.707107 -0.000000
vn -0.866025 0.500000 -0.000000
vn -0.866025 0.500000 -0.000000
vn -0.965926 -0.258819 0.000000
vn -0.965926 -0.258819 0.000000
vn -1.000000 -0.000000 0.000000
vn -1.000000 -0.000000 0.000000
vn -0.965926 0.258819 -0.000000
vn -0.965926 0.258819 -0.000000
vn -0.866025 0.500000 -0.000000
vn -0.866025 0.500000 -0.000000
vn -0.707107 0.707107 -0.000000
vn -0.707107 0.707107 -0.000000
vn -0.500000 0.866025 -0.000000
vn -0.500000 0.866025 -0.000000
vn -0.258819 0.965926 -0.000000
vn -0.258819 0.965926 -0.000000
vn 0.000000 1.000000 -0.000000
vn 0.000000 1.000000 -0.000000
vn 0.258819 0.965926 -0.000000
vn 0.258819 0.965926 -0.000000
vn 0.500000 0.866025 -0.000000
vn 0.500000 0.866025 -0.000000
vn 0.707107 0.707107 -0.000000
vn 0.707107 0.707107 -0.000000
vn 0.866025 0.500000 -0.000000
vn 0.866025 0.500000 -0.000000
vn 0.965926 0.258819 -0.000000
vn 0.965926 0.258819 -0.000000
vn 1.000000 -0.000000 -0.000000
vn 1.000000 -0.000000 -0.000000
vn 0.965926 -0.258819 -0.000000
vn 0.965926 -0.258819 -0.000000
vn 0.866025 -0.500000 -0.000000
vn 0.866025 -0.500000 -0.000000
vn 0.707107 -0.707107 -0.000000
vn 0.707107 -0.707107 -0.000000
vn 0.500000 -0.866025 -0.000000
vn 0.500000 -0.866025 -0.000000
vn 0.258819 -0.965926 -0.000000
vn 0.258819 -0.965926 -0.000000
vn 0.000000 -1.000000 -0.000000
vn 0.000000 -1.000000 -0.000000
vn -0.258819 -0.965926 0.000000
vn -0.258819 -0.965926 0.000000
vn -0.500000 -0.866025 0.000000
vn -0.500000 -0.866025 0.000000
vn -0.707107 -0.707107 0.000000
vn -0.707107 -0.707107 0.000000
vn -0.866025 -0.500000 0.000000
vn -0.866025 -0.500000 0.000000
vn -0.965926 -0.258819 -0.000000
vn -0.996714 -0.080995 -0.000000
vn -1.000000 -0.000000 -0.000000
vn -0.984907 0.173082 -0.000000
vn -0.965926 0.258819 -0.000000
vn -0.909382 0.415962 -0.000000
vn -0.866025 0.500000 -0.000000
vn -0.775024 0.631932 -0.000000
vn -0.707107 0.707107 -0.000000
vn -0.590526 0.807018 -0.000000
vn -0.500000 0.866025 -0.000000
vn -0.367825 0.929895 -0.000000
vn -0.258819 0.965926 -0.000000
vn -0.121326 0.992613 -0.000000
vn 0.000000 1.000000 0.000000
vn 0.133021 0.991113 0.000000
vn 0.258819 0.965926 0.000000
vn 0.378762 0.925494 0.000000
vn 0.500000 0.866025 0.000000
vn 0.600000 0.800000 0.000000
vn 0.707107 0.707107 0.000000
vn 0.767752 0.640747 0.000000
vn 0.866025 0.500000 0.000000
vn 0.894427 0.447214 0.000000
vn 0.965926 0.258819 0.000000
vn 0.973249 0.229753 0.000000
vn 1.000000 0.000000 0.000000
vn 0.967653 -0.252286 -0.000000
vn -0.944039 -0.329833 -0.000000
vn -0.866025 -0.500000 -0.000000
vn -0.830290 -0.557332 -0.000000
vn -0.707107 -0.707107 -0.000000
vn -0.662825 -0.748774 -0.000000
vn -0.500000 -0.866025 -0.000000
vn -0.452479 -0.891775 -0.000000
vn -0.258819 -0.965926 -0.000000
vn -0.212859 -0.977083 -0.000000
vn 0.000000 -1.000000 -0.000000
vn 0.040531 -0.999178 -0.000000
vn 0.258819 -0.965926 -0.000000
vn 0.291299 -0.956632 -0.000000
vn 0.500000 -0.866025 -0.000000
vn 0.523221 -0.852197 -0.000000
vn 0.707107 -0.707107 -0.000000
vn 0.721294 -0.692629 -0.000000
vn 0.866025 -0.500000 -0.000000
vn 0.872703 -0.488251 -0.000000
vn 0.965926 -0.258819 -0.000000
vn -0.000000 -0.000000 -1.000000
vn -0.000000 -0.000000 -1.000000
vn -0.000000 -0.000000 -1.000000
vn -0.000000 -0.000000 -1.000000
vn -0.000000 -0.000000 -1.000000
vn -0.000000 -0.000000 -1.000000
vn -0.000000 -0.000000 -1.000000
vn -0.000000 -0.000000 -1.000000
vn -0.000000 -0.000000 -1.000000
vn -0.000000 -0.000000 -1.000000
vn -0.000000 -0.000000 -1.000000
vn -0.000000 -0.000000 -1.000000
vn -0.000000 -0.000000 -1.000000
vn -0.000000 -0.000000 -1.000000
vn -0.000000 -0.000000 -1.000000
vn -0.000000 -0.000000 -1.000000
vn -0.000000 -0.000000 -1.000000
vn -0.000000 -0.000000 -1.000000
vn -0.000000 -0.000000 -1.000000
vn -0.000000 -0.000000 -1.000000
vn -0.000000 -0.000000 -1.000000
vn -0.000000 -0.000000 -1.000000
vn -0.000000 -0.000000 -1.000000
vn -0.000000 -0.000000 -1.000000
vn -0.000000 -0.000000 -1.000000
vn -0.000000 -0.000000 -1.000000
vn -0.000000 -0.000000 -1.000000
vn -0.000000 -0.000000 -1.000000
usemtl Steel_-_Satin
f 1/1/1 2/2/2 26/3/3
f 26/3/3 2/2/2 3/4/4
f 26/3/3 3/4/4 4/5/5
f 26/3/3 4/5/5 25/6/6
f 25/6/6 4/5/5 5/7/7
f 25/6/6 5/7/7 6/8/8
f 25/6/6 6/8/8 24/9/9
f 24/9/9 6/8/8 7/10/10
f 24/9/9 7/10/10 23/11/11
f 23/11/11 7/10/10 8/12/12
f 23/11/11 8/12/12 22/13/13
f 22/13/13 8/12/12 9/14/14
f 22/13/13 9/14/14 21/15/15
f 21/15/15 9/14/14 10/16/16
f 21/15/15 10/16/16 20/17/17
f 20/17/17 10/16/16 11/18/18
f 20/17/17 11/18/18 19/19/19
f 19/19/19 11/18/18 12/20/20
f 19/19/19 12/20/20 18/21/21
f 18/21/21 12/20/20 13/22/22
f 18/21/21 13/22/22 17/23/23
f 17/23/23 13/22/22 14/24/24
f 17/23/23 14/24/24 16/25/25
f 16/25/25 14/24/24 15/26/26
f 27/27/27 28/28/28 50/29/29
f 50/29/29 28/28/28 29/30/30
f 50/29/29 29/30/30 49/31/31
f 49/31/31 29/30/30 30/32/32
f 49/31/31 30/32/32 48/33/33
f 48/33/33 30/32/32 31/34/34
f 48/33/33 31/34/34 47/35/35
f 47/35/35 31/34/34 32/36/36
f 47/35/35 32/36/36 46/37/37
f 46/37/37 32/36/36 33/38/38
f 46/37/37 33/38/38 45/39/39
f 45/39/39 33/38/38 34/40/40
f 45/39/39 34/40/40 44/41/41
f 44/41/41 34/40/40 35/42/42
f 44/41/41 35/42/42 43/43/43
f 43/43/43 35/42/42 36/44/44
f 43/43/43 36/44/44 42/45/45
f 42/45/45 36/44/44 37/46/46
f 42/45/45 37/46/46 41/47/47
f 41/47/47 37/46/46 38/48/48
f 41/47/47 38/48/48 40/49/49
f 40/49/49 38/48/48 39/50/50
f 51/51/51 27/52/52 52/53/53
f 52/53/53 27/52/52 50/54/54
f 52/53/53 50/54/54 5/55/55
f 5/55/55 50/54/54 49/56/56
f 5/55/55 49/56/56 6/57/57
f 6/57/57 49/56/56 48/58/58
f 6/57/57 48/58/58 7/59/59
f 7/59/59 48/58/58 47/60/60
f 7/59/59 47/60/60 8/61/61
f 8/61/61 47/60/60 46/62/62
f 8/61/61 46/62/62 9/63/63
f 9/63/63 46/62/62 45/64/64
f 9/63/63 45/64/64 10/65/65
f 10/65/65 45/64/64 44/66/66
f 10/65/65 44/66/66 11/67/67
f 11/67/67 44/66/66 43/68/68
f 11/67/67 43/68/68 12/69/69
f 12/69/69 43/68/68 42/70/70
f 12/69/69 42/70/70 13/71/71
f 13/71/71 42/70/70 41/72/72
f 13/71/71 41/72/72 14/73/73
f 14/73/73 41/72/72 40/74/74
f 14/73/73 40/74/74 15/75/75
f 28/76/76 1/77/77 29/78/78
f 29/78/78 1/77/77 26/79/79
f 29/78/78 26/79/79 30/80/80
f 30/80/80 26/79/79 25/81/81
f 30/80/80 25/81/81 31/82/82
f 31/82/82 25/81/81 24/83/83
f 31/82/82 24/83/83 32/84/84
f 32/84/84 24/83/83 23/85/85
f 32/84/84 23/85/85 33/86/86
f 33/86/86 23/85/85 22/87/87
f 33/86/86 22/87/87 34/88/88
f 34/88/88 22/87/87 21/89/89
f 34/88/88 21/89/89 35/90/90
f 35/90/90 21/89/89 20/91/91
f 35/90/90 20/91/91 36/92/92
f 36/92/92 20/91/91 19/93/93
f 36/92/92 19/93/93 37/94/94
f 37/94/94 19/93/93 18/95/95
f 37/94/94 18/95/95 38/96/96
f 38/96/96 18/95/95 17/97/97
f 38/96/96 17/97/97 39/98/98
f 39/98/98 17/97/97 16/99/99
f 39/100/100 16/101/101 40/102/102
f 40/102/102 16/101/101 15/103/103
f 28/104/104 27/105/105 1/106/106
f 1/106/106 27/105/105 51/107/107
f 1/108/108 51/109/109 72/110/110
f 72/110/110 51/109/109 71/111/111
f 71/111/111 51/109/109 97/112/112
f 71/111/111 97/112/112 70/113/113
f 70/113/113 97/112/112 69/114/114
f 69/114/114 97/112/112 68/115/115
f 68/115/115 97/112/112 67/116/116
f 67/116/116 97/112/112 102/117/117
f 67/116/116 102/117/117 66/118/118
f 66/118/118 102/117/117 65/119/119
f 65/119/119 102/117/117 64/120/120
f 64/120/120 102/117/117 63/121/121
f 63/121/121 102/117/117 62/122/122
f 62/122/122 102/117/117 61/123/123
f 61/123/123 102/117/117 101/124/124
f 61/123/123 101/124/124 60/125/125
f 60/125/125 101/124/124 59/126/126
f 59/126/126 101/124/124 58/127/127
f 58/127/127 101/124/124 57/128/128
f 57/128/128 101/124/124 56/129/129
f 56/129/129 101/124/124 55/130/130
f 55/130/130 101/124/124 100/131/131
f 55/130/130 100/131/131 54/132/132
f 54/132/132 100/131/131 53/133/133
f 53/133/133 100/131/131 5/134/134
f 5/134/134 100/131/131 52/135/135
f 52/135/135 100/131/131 51/109/109
f 51/109/109 100/131/131 98/136/136
f 51/109/109 98/136/136 99/137/137
f 99/137/137 98/136/136 86/138/138
f 99/137/137 86/138/138 87/139/139
f 74/140/140 101/124/124 73/141/141
f 73/141/141 101/124/124 102/117/117
f 73/141/141 102/117/117 96/142/142
f 96/142/142 102/117/117 95/143/143
f 95/143/143 102/117/117 94/144/144
f 94/144/144 102/117/117 93/145/145
f 93/145/145 102/117/117 92/146/146
f 92/146/146 102/117/117 91/147/147
f 91/147/147 102/117/117 97/112/112
f 91/147/147 97/112/112 90/148/148
f 90/148/148 97/112/112 89/149/149
f 89/149/149 97/112/112 99/137/137
f 89/149/149 99/137/137 88/150/150
f 88/150/150 99/137/137 87/139/139
f 74/140/140 75/151/151 101/124/124
f 101/124/124 75/151/151 76/152/152
f 101/124/124 76/152/152 77/153/153
f 77/153/153 78/154/154 101/124/124
f 101/124/124 78/154/154 79/155/155
f 101/124/124 79/155/155 100/131/131
f 100/131/131 79/155/155 80/156/156
f 100/131/131 80/156/156 81/157/157
f 81/157/157 82/158/158 100/131/131
f 100/131/131 82/158/158 83/159/159
f 100/131/131 83/159/159 98/136/136
f 98/136/136 83/159/159 84/160/160
f 98/136/136 84/160/160 85/161/161
f 85/161/161 86/138/138 98/136/136
f 97/112/112 51/109/109 99/137/137
f 104/162/162 150/163/163 103/164/164
f 103/164/164 150/163/163 127/165/165
f 103/164/164 127/165/165 126/166/166
f 126/166/166 127/165/165 128/167/167
f 126/166/166 128/167/167 129/168/168
f 150/163/163 104/162/162 149/169/169
f 149/169/169 104/162/162 105/170/170
f 149/169/169 105/170/170 148/171/171
f 148/171/171 105/170/170 106/172/172
f 148/171/171 106/172/172 147/173/173
f 147/173/173 106/172/172 107/174/174
f 147/173/173 107/174/174 146/175/175
f 146/175/175 107/174/174 108/176/176
f 146/175/175 108/176/176 145/177/177
f 145/177/177 108/176/176 109/178/178
f 145/177/177 109/178/178 110/179/179
f 145/177/177 110/179/179 144/180/180
f 144/180/180 110/179/179 111/181/181
f 144/180/180 111/181/181 143/182/182
f 143/182/182 111/181/181 112/183/183
f 143/182/182 112/183/183 142/184/184
f 142/184/184 112/183/183 113/185/185
f 142/184/184 113/185/185 141/186/186
f 141/186/186 113/185/185 114/187/187
f 141/186/186 114/187/187 140/188/188
f 140/188/188 114/187/187 115/189/189
f 140/188/188 115/189/189 139/190/190
f 139/190/190 115/189/189 138/191/191
f 138/191/191 115/189/189 116/192/192
f 138/191/191 116/192/192 137/193/193
f 137/193/193 116/192/192 117/194/194
f 137/193/193 117/194/194 136/195/195
f 136/195/195 117/194/194 118/196/196
f 136/195/195 118/196/196 135/197/197
f 135/197/197 118/196/196 119/198/198
f 135/197/197 119/198/198 134/199/199
f 134/199/199 119/198/198 120/200/200
f 134/199/199 120/200/200 133/201/201
f 133/201/201 120/200/200 121/202/202
f 133/201/201 121/202/202 122/203/203
f 133/201/201 122/203/203 132/204/204
f 132/204/204 122/203/203 123/205/205
f 132/204/204 123/205/205 131/206/206
f 131/206/206 123/205/205 124/207/207
f 131/206/206 124/207/207 130/208/208
f 130/208/208 124/207/207 125/209/209
f 130/208/208 125/209/209 129/168/168
f 129/168/168 125/209/209 126/166/166
f 152/210/210 104/211/211 151/212/212
f 151/212/212 104/211/211 103/213/213
f 151/214/212 103/215/213 174/216/214
f 174/216/214 103/215/213 126/217/215
f 174/216/214 126/217/215 173/218/216
f 173/218/216 126/217/215 125/219/217
f 173/218/216 125/219/217 172/220/218
f 172/220/218 125/219/217 124/221/219
f 172/220/218 124/221/219 171/222/220
f 171/222/220 124/221/219 123/223/221
f 171/222/220 123/223/221 170/224/222
f 170/224/222 123/223/221 122/225/223
f 170/224/222 122/225/223 169/226/224
f 169/226/224 122/225/223 121/227/225
f 169/226/224 121/227/225 168/228/226
f 168/228/226 121/227/225 120/229/227
f 168/228/226 120/229/227 167/230/228
f 167/230/228 120/229/227 119/231/229
f 167/230/228 119/231/229 166/232/230
f 166/232/230 119/231/229 118/233/231
f 166/232/230 118/233/231 165/234/232
f 165/234/232 118/233/231 117/235/233
f 165/234/232 117/235/233 164/236/234
f 164/236/234 117/235/233 116/237/235
f 164/236/234 116/237/235 163/238/236
f 163/238/236 116/237/235 115/239/237
f 163/238/236 115/239/237 162/240/238
f 162/240/238 115/239/237 114/241/239
f 162/240/238 114/241/239 161/242/240
f 161/242/240 114/241/239 113/243/241
f 161/242/240 113/243/241 160/244/242
f 160/244/242 113/243/241 112/245/243
f 160/244/242 112/245/243 159/246/244
f 159/246/244 112/245/243 111/247/245
f 159/246/244 111/247/245 158/248/246
f 158/248/246 111/247/245 110/249/247
f 158/248/246 110/249/247 157/250/248
f 157/250/248 110/249/247 109/251/249
f 157/250/248 109/251/249 156/252/250
f 156/252/250 109/251/249 108/253/251
f 156/252/250 108/253/251 155/254/252
f 155/254/252 108/253/251 107/255/253
f 155/254/252 107/255/253 154/256/254
f 154/256/254 107/255/253 106/257/255
f 154/256/254 106/257/255 153/258/256
f 153/258/256 106/257/255 105/259/257
f 153/258/256 105/259/257 152/210/210
f 152/210/210 105/259/257 104/211/211
f 174/260/258 164/261/259 151/262/260
f 151/262/260 164/261/259 163/263/261
f 151/262/260 163/263/261 152/264/262
f 152/264/262 163/263/261 162/265/263
f 152/264/262 162/265/263 153/266/264
f 153/266/264 162/265/263 161/267/265
f 153/266/264 161/267/265 154/268/266
f 154/268/266 161/267/265 160/269/267
f 154/268/266 160/269/267 155/270/268
f 155/270/268 160/269/267 159/271/269
f 155/270/268 159/271/269 156/272/270
f 156/272/270 159/271/269 158/273/271
f 156/272/270 158/273/271 157/274/272
f 164/261/259 174/260/258 165/275/273
f 165/275/273 174/260/258 173/276/274
f 165/275/273 173/276/274 166/277/275
f 166/277/275 173/276/274 172/278/276
f 166/277/275 172/278/276 167/279/277
f 167/279/277 172/278/276 171/280/278
f 167/279/277 171/280/278 168/281/279
f 168/281/279 171/280/278 170/282/280
f 168/281/279 170/282/280 169/283/281
f 150/284/282 177/285/283 127/286/284
f 127/286/284 177/285/283 175/287/285
f 127/288/284 175/289/285 128/290/286
f 128/290/286 175/289/285 221/291/287
f 128/290/286 221/291/287 129/292/288
f 129/292/288 221/291/287 219/293/289
f 129/292/288 219/293/289 130/294/290
f 130/294/290 219/293/289 217/295/291
f 130/294/290 217/295/291 131/296/292
f 131/296/292 217/295/291 215/297/293
f 131/296/292 215/297/293 132/298/294
f 132/298/294 215/297/293 213/299/295
f 132/298/294 213/299/295 133/300/296
f 133/300/296 213/299/295 211/301/297
f 133/300/296 211/301/297 134/302/298
f 134/302/298 211/301/297 209/303/299
f 134/302/298 209/303/299 135/304/300
f 135/304/300 209/303/299 207/305/301
f 135/304/300 207/305/301 136/306/302
f 136/306/302 207/305/301 205/307/303
f 136/306/302 205/307/303 137/308/304
f 137/308/304 205/307/303 203/309/305
f 137/308/304 203/309/305 138/310/306
f 138/310/306 203/309/305 201/311/307
f 138/310/306 201/311/307 139/312/308
f 139/312/308 201/311/307 199/313/309
f 139/312/308 199/313/309 140/314/310
f 140/314/310 199/313/309 197/315/311
f 140/314/310 197/315/311 141/316/312
f 141/316/312 197/315/311 195/317/313
f 141/316/312 195/317/313 142/318/314
f 142/318/314 195/317/313 193/319/315
f 142/318/314 193/319/315 143/320/316
f 143/320/316 193/319/315 191/321/317
f 143/320/316 191/321/317 144/322/318
f 144/322/318 191/321/317 189/323/319
f 144/322/318 189/323/319 145/324/320
f 145/324/320 189/323/319 187/325/321
f 145/324/320 187/325/321 146/326/322
f 146/326/322 187/325/321 185/327/323
f 146/326/322 185/327/323 147/328/324
f 147/328/324 185/327/323 183/329/325
f 147/328/324 183/329/325 148/330/326
f 148/330/326 183/329/325 181/331/327
f 148/330/326 181/331/327 149/332/328
f 149/332/328 181/331/327 179/333/329
f 149/332/328 179/333/329 150/284/282
f 150/284/282 179/333/329 177/285/283
f 96/334/330 222/335/331 73/336/332
f 73/336/332 222/335/331 176/337/333
f 73/338/332 176/339/333 74/340/334
f 74/340/334 176/339/333 178/341/335
f 74/340/334 178/341/335 75/342/336
f 75/342/336 178/341/335 180/343/337
f 75/342/336 180/343/337 76/344/338
f 76/344/338 180/343/337 182/345/339
f 76/344/338 182/345/339 77/346/340
f 77/346/340 182/345/339 184/347/341
f 77/346/340 184/347/341 78/348/342
f 78/348/342 184/347/341 186/349/343
f 78/348/342 186/349/343 79/350/344
f 79/350/344 186/349/343 188/351/345
f 79/350/344 188/351/345 80/352/346
f 80/352/346 188/351/345 190/353/347
f 80/352/346 190/353/347 81/354/348
f 81/354/348 190/353/347 192/355/349
f 81/354/348 192/355/349 82/356/350
f 82/356/350 192/355/349 194/357/351
f 82/356/350 194/357/351 83/358/352
f 83/358/352 194/357/351 196/359/353
f 83/358/352 196/359/353 84/360/354
f 84/360/354 196/359/353 198/361/355
f 84/360/354 198/361/355 85/362/356
f 85/362/356 198/361/355 200/363/357
f 85/362/356 200/363/357 86/364/358
f 86/364/358 200/363/357 202/365/359
f 86/364/358 202/365/359 87/366/360
f 87/366/360 202/365/359 204/367/361
f 87/366/360 204/367/361 88/368/362
f 88/368/362 204/367/361 206/369/363
f 88/368/362 206/369/363 89/370/364
f 89/370/364 206/369/363 208/371/365
f 89/370/364 208/371/365 90/372/366
f 90/372/366 208/371/365 210/373/367
f 90/372/366 210/373/367 91/374/368
f 91/374/368 210/373/367 212/375/369
f 91/374/368 212/375/369 92/376/370
f 92/376/370 212/375/369 214/377/371
f 92/376/370 214/377/371 93/378/372
f 93/378/372 214/377/371 216/379/373
f 93/378/372 216/379/373 94/380/374
f 94/380/374 216/379/373 218/381/375
f 94/380/374 218/381/375 95/382/376
f 95/382/376 218/381/375 220/383/377
f 95/382/376 220/383/377 96/334/330
f 96/334/330 220/383/377 222/335/331
f 175/289/285 176/337/333 221/291/287
f 221/291/287 176/337/333 222/335/331
f 221/291/287 222/335/331 219/293/289
f 219/293/289 222/335/331 220/383/377
f 219/293/289 220/383/377 217/295/291
f 217/295/291 220/383/377 218/381/375
f 217/295/291 218/381/375 215/297/293
f 215/297/293 218/381/375 216/379/373
f 215/297/293 216/379/373 213/299/295
f 213/299/295 216/379/373 214/377/371
f 213/299/295 214/377/371 211/301/297
f 211/301/297 214/377/371 212/375/369
f 211/301/297 212/375/369 209/303/299
f 209/303/299 212/375/369 210/373/367
f 209/303/299 210/373/367 207/305/301
f 207/305/301 210/373/367 208/371/365
f 207/305/301 208/371/365 205/307/303
f 205/307/303 208/371/365 206/369/363
f 205/307/303 206/369/363 203/309/305
f 203/309/305 206/369/363 204/367/361
f 203/309/305 204/367/361 201/311/307
f 201/311/307 204/367/361 202/365/359
f 201/311/307 202/365/359 199/313/309
f 199/313/309 202/365/359 200/363/357
f 199/313/309 200/363/357 197/315/311
f 197/315/311 200/363/357 198/361/355
f 197/315/311 198/361/355 195/317/313
f 195/317/313 198/361/355 196/359/353
f 195/317/313 196/359/353 193/319/315
f 193/319/315 196/359/353 194/357/351
f 193/319/315 194/357/351 191/321/317
f 191/321/317 194/357/351 192/355/349
f 191/321/317 192/355/349 189/323/319
f 189/323/319 192/355/349 190/353/347
f 189/323/319 190/353/347 187/325/321
f 187/325/321 190/353/347 188/351/345
f 187/325/321 188/351/345 185/327/323
f 185/327/323 188/351/345 186/349/343
f 185/327/323 186/349/343 183/329/325
f 183/329/325 186/349/343 184/347/341
f 183/329/325 184/347/341 181/331/327
f 181/331/327 184/347/341 182/345/339
f 181/331/327 182/345/339 179/333/329
f 179/333/329 182/345/339 180/343/337
f 179/333/329 180/343/337 177/285/283
f 177/285/283 180/343/337 178/341/335
f 177/285/283 178/341/335 175/287/285
f 175/287/285 178/341/335 176/339/333
f 224/384/378 61/385/379 223/386/380
f 223/387/380 61/388/379 60/389/381
f 223/387/380 60/389/381 246/390/382
f 246/390/382 60/389/381 59/391/383
f 246/390/382 59/391/383 245/392/384
f 245/392/384 59/391/383 58/393/385
f 245/392/384 58/393/385 244/394/386
f 244/394/386 58/393/385 57/395/387
f 244/394/386 57/395/387 243/396/388
f 243/396/388 57/395/387 56/397/389
f 243/396/388 56/397/389 242/398/390
f 242/398/390 56/397/389 55/399/391
f 242/398/390 55/399/391 241/400/392
f 241/400/392 55/399/391 54/401/393
f 241/400/392 54/401/393 240/402/394
f 240/402/394 54/401/393 53/403/395
f 240/402/394 53/403/395 239/404/396
f 239/404/396 53/403/395 5/405/397
f 239/404/396 5/405/397 238/406/398
f 238/406/398 5/405/397 4/407/399
f 238/406/398 4/407/399 237/408/400
f 237/408/400 4/407/399 3/409/401
f 237/408/400 3/409/401 236/410/402
f 236/410/402 3/409/401 2/411/403
f 236/410/402 2/411/403 235/412/404
f 235/412/404 2/411/403 1/413/77
f 235/412/404 1/413/77 72/414/405
f 61/385/379 224/384/378 62/415/406
f 62/415/406 224/384/378 225/416/407
f 62/415/406 225/416/407 63/417/408
f 63/417/408 225/416/407 226/418/409
f 63/417/408 226/418/409 64/419/410
f 64/419/410 226/418/409 227/420/411
f 64/419/410 227/420/411 65/421/412
f 65/421/412 227/420/411 228/422/413
f 65/421/412 228/422/413 66/423/414
f 66/423/414 228/422/413 229/424/415
f 66/423/414 229/424/415 67/425/416
f 67/425/416 229/424/415 230/426/417
f 67/425/416 230/426/417 68/427/418
f 68/427/418 230/426/417 231/428/419
f 68/427/418 231/428/419 69/429/420
f 69/429/420 231/428/419 232/430/421
f 69/429/420 232/430/421 70/431/422
f 70/431/422 232/430/421 233/432/423
f 70/431/422 233/432/423 71/433/424
f 71/433/424 233/432/423 234/434/425
f 71/433/424 234/434/425 72/414/405
f 72/414/405 234/434/425 235/412/404
f 246/435/426 249/436/427 223/437/428
f 223/437/428 249/436/427 248/438/429
f 223/437/428 248/438/429 224/439/430
f 224/439/430 248/438/429 225/440/431
f 225/440/431 248/438/429 226/441/432
f 226/441/432 248/438/429 227/442/433
f 227/442/433 248/438/429 228/443/434
f 228/443/434 248/438/429 229/444/435
f 229/444/435 248/438/429 247/445/436
f 229/444/435 247/445/436 230/446/437
f 230/446/437 247/445/436 231/447/438
f 231/447/438 247/445/436 232/448/439
f 232/448/439 247/445/436 233/449/440
f 233/449/440 247/445/436 234/450/441
f 234/450/441 247/445/436 235/451/442
f 235/451/442 247/445/436 250/452/443
f 235/451/442 250/452/443 236/453/444
f 236/453/444 250/452/443 237/454/445
f 237/454/445 250/452/443 238/455/446
f 238/455/446 250/452/443 239/456/447
f 239/456/447 250/452/443 240/457/448
f 240/457/448 250/452/443 241/458/449
f 241/458/449 250/452/443 249/436/427
f 241/458/449 249/436/427 242/459/450
f 242/459/450 249/436/427 243/460/451
f 243/460/451 249/436/427 244/461/452
f 244/461/452 249/436/427 245/462/453
f 245/462/453 249/436/427 246/435/426
f 249/436/427 250/452/443 248/438/429
f 248/438/429 250/452/443 247/445/436
# 250 vertices
# 462 texture params
# 453 normals
# 496 facets

# 1 groups
