# WaveFront *.obj file (generated by Autodesk ATF)

mtllib r_radius.mtl

g radius

v 6.000000 34.000011 -24.000000
v 6.000000 38.000011 -24.000000
v 9.000000 38.000011 -24.000000
v 9.000000 34.000011 -24.000000
v 6.000000 38.000011 -20.000000
v 6.000000 34.000011 -20.000000
v 9.000000 34.000011 -20.000000
v 9.000000 38.000011 -20.000000
v 6.000000 34.000011 -30.000000
v 6.000000 34.000011 -36.000000
v 6.000000 38.000011 -36.000000
v 6.000000 38.000011 -30.000000
v 6.000000 38.000011 -9.600000
v 6.000000 38.000011 0.800000
v 6.000000 38.000011 11.200000
v 6.000000 38.000011 21.600000
v 6.000000 38.000011 32.000000
v 6.000000 38.000011 42.400000
v 6.000000 38.000011 52.800000
v 6.000000 38.000011 63.200000
v 6.000000 38.000011 73.600000
v 6.000000 38.000011 84.000000
v 6.000000 34.000011 84.000000
v 6.000000 34.000011 73.600000
v 6.000000 34.000011 63.200000
v 6.000000 34.000011 52.800000
v 6.000000 34.000011 42.400000
v 6.000000 34.000011 32.000000
v 6.000000 34.000011 21.600000
v 6.000000 34.000011 11.200000
v 6.000000 34.000011 0.800000
v 6.000000 34.000011 -9.600000
v 3.000000 34.000011 -36.000000
v 3.000000 38.000011 -36.000000
v 3.000000 34.000011 84.000000
v 3.000000 34.000011 73.090909
v 3.000000 34.000011 62.181818
v 3.000000 34.000011 51.272727
v 3.000000 34.000011 40.363636
v 3.000000 34.000011 29.454545
v 3.000000 34.000011 18.545455
v 3.000000 34.000011 7.636364
v 3.000000 34.000011 -3.272727
v 3.000000 34.000011 -14.181818
v 3.000000 34.000011 -25.090909
v 3.000000 38.000011 84.000000
v 3.000000 38.000011 73.090909
v 3.000000 38.000011 62.181818
v 3.000000 38.000011 51.272727
v 3.000000 38.000011 40.363636
v 3.000000 38.000011 29.454545
v 3.000000 38.000011 18.545455
v 3.000000 38.000011 7.636364
v 3.000000 38.000011 -3.272727
v 3.000000 38.000011 -14.181818
v 3.000000 38.000011 -25.090909
vt 0.000000 0.000000 0.000000
vt 4.000000 0.000000 0.000000
vt 0.000000 3.000000 0.000000
vt 4.000000 3.000000 0.000000
vt 0.000000 0.000000 0.000000
vt 4.000000 0.000000 0.000000
vt 0.000000 3.000000 0.000000
vt 4.000000 3.000000 0.000000
vt 2.000000 2.000000 0.000000
vt -2.000000 2.000000 0.000000
vt 2.000000 -2.000000 0.000000
vt -2.000000 -2.000000 0.000000
vt 4.000000 2.000000 0.000000
vt 0.000000 2.000000 0.000000
vt 4.000000 -4.000000 0.000000
vt 0.000000 -4.000000 0.000000
vt 4.000000 -10.000000 0.000000
vt 0.000000 -10.000000 0.000000
vt 0.000000 6.000000 0.000000
vt 4.000000 6.000000 0.000000
vt 0.000000 16.400000 0.000000
vt 4.000000 16.400000 0.000000
vt 0.000000 26.800000 0.000000
vt 4.000000 26.800000 0.000000
vt 0.000000 37.200000 0.000000
vt 4.000000 37.200000 0.000000
vt 0.000000 47.600000 0.000000
vt 4.000000 47.600000 0.000000
vt 0.000000 58.000000 0.000000
vt 4.000000 58.000000 0.000000
vt 0.000000 68.400000 0.000000
vt 4.000000 68.400000 0.000000
vt 0.000000 78.800000 0.000000
vt 4.000000 78.800000 0.000000
vt 0.000000 89.200000 0.000000
vt 4.000000 89.200000 0.000000
vt 0.000000 99.600000 0.000000
vt 4.000000 99.600000 0.000000
vt 0.000000 110.000000 0.000000
vt 4.000000 110.000000 0.000000
vt -1.500000 -2.000000 0.000000
vt 1.500000 -2.000000 0.000000
vt -1.500000 2.000000 0.000000
vt 1.500000 2.000000 0.000000
vt 3.000000 16.400000 0.000000
vt 0.000000 11.818182 0.000000
vt 3.000000 6.000000 0.000000
vt 0.000000 0.909091 0.000000
vt 3.000000 2.000000 0.000000
vt 3.000000 -4.000000 0.000000
vt 0.000000 -10.000000 0.000000
vt 3.000000 -10.000000 0.000000
vt 0.000000 22.727273 0.000000
vt 3.000000 26.800000 0.000000
vt 0.000000 33.636364 0.000000
vt 3.000000 37.200000 0.000000
vt 0.000000 44.545455 0.000000
vt 3.000000 47.600000 0.000000
vt 0.000000 55.454545 0.000000
vt 3.000000 58.000000 0.000000
vt 0.000000 66.363636 0.000000
vt 3.000000 68.400000 0.000000
vt 0.000000 77.272727 0.000000
vt 3.000000 78.800000 0.000000
vt 0.000000 88.181818 0.000000
vt 3.000000 89.200000 0.000000
vt 0.000000 99.090909 0.000000
vt 3.000000 99.600000 0.000000
vt 0.000000 110.000000 0.000000
vt 3.000000 110.000000 0.000000
vt 6.000000 2.000000 0.000000
vt 6.000000 6.000000 0.000000
vt 0.000000 -10.000000 0.000000
vt 4.000000 -10.000000 0.000000
vt 0.000000 0.909091 0.000000
vt 4.000000 0.909091 0.000000
vt 0.000000 11.818182 0.000000
vt 4.000000 11.818182 0.000000
vt 0.000000 22.727273 0.000000
vt 4.000000 22.727273 0.000000
vt 0.000000 33.636364 0.000000
vt 4.000000 33.636364 0.000000
vt 0.000000 44.545455 0.000000
vt 4.000000 44.545455 0.000000
vt 0.000000 55.454545 0.000000
vt 4.000000 55.454545 0.000000
vt 0.000000 66.363636 0.000000
vt 4.000000 66.363636 0.000000
vt 0.000000 77.272727 0.000000
vt 4.000000 77.272727 0.000000
vt 0.000000 88.181818 0.000000
vt 4.000000 88.181818 0.000000
vt 0.000000 99.090909 0.000000
vt 4.000000 99.090909 0.000000
vt 0.000000 110.000000 0.000000
vt 4.000000 110.000000 0.000000
vt 0.000000 -10.000000 0.000000
vt 3.000000 -10.000000 0.000000
vt 0.000000 -4.000000 0.000000
vt 3.000000 0.909091 0.000000
vt 0.000000 2.000000 0.000000
vt 0.000000 6.000000 0.000000
vt -3.000000 6.000000 0.000000
vt 3.000000 11.818182 0.000000
vt 0.000000 16.400000 0.000000
vt 3.000000 22.727273 0.000000
vt 0.000000 26.800000 0.000000
vt 3.000000 33.636364 0.000000
vt 0.000000 37.200000 0.000000
vt 3.000000 44.545455 0.000000
vt 0.000000 47.600000 0.000000
vt 3.000000 55.454545 0.000000
vt 0.000000 58.000000 0.000000
vt 3.000000 66.363636 0.000000
vt 0.000000 68.400000 0.000000
vt 3.000000 77.272727 0.000000
vt 0.000000 78.800000 0.000000
vt 3.000000 88.181818 0.000000
vt 0.000000 89.200000 0.000000
vt 3.000000 99.090909 0.000000
vt 0.000000 99.600000 0.000000
vt 3.000000 110.000000 0.000000
vt 0.000000 110.000000 0.000000
vt -3.000000 2.000000 0.000000
vt 1.500000 2.000000 0.000000
vt -1.500000 2.000000 0.000000
vt 1.500000 -2.000000 0.000000
vt -1.500000 -2.000000 0.000000
vn 0.000000 0.000000 -1.000000
vn 0.000000 0.000000 -1.000000
vn 0.000000 0.000000 -1.000000
vn 0.000000 0.000000 -1.000000
vn 0.000000 0.000000 1.000000
vn 0.000000 0.000000 1.000000
vn 0.000000 0.000000 1.000000
vn 0.000000 0.000000 1.000000
vn 1.000000 0.000000 0.000000
vn 1.000000 0.000000 0.000000
vn 1.000000 0.000000 0.000000
vn 1.000000 0.000000 0.000000
vn 1.000000 0.000000 0.000000
vn 1.000000 0.000000 0.000000
vn 1.000000 0.000000 0.000000
vn 1.000000 0.000000 0.000000
vn 1.000000 0.000000 0.000000
vn 1.000000 0.000000 0.000000
vn 1.000000 0.000000 0.000000
vn 1.000000 0.000000 0.000000
vn 1.000000 0.000000 0.000000
vn 1.000000 0.000000 0.000000
vn 1.000000 0.000000 0.000000
vn 1.000000 0.000000 0.000000
vn 1.000000 0.000000 0.000000
vn 1.000000 0.000000 0.000000
vn 1.000000 0.000000 0.000000
vn 1.000000 0.000000 0.000000
vn 1.000000 0.000000 0.000000
vn 1.000000 0.000000 0.000000
vn 1.000000 0.000000 0.000000
vn 1.000000 0.000000 0.000000
vn 1.000000 0.000000 0.000000
vn 1.000000 0.000000 0.000000
vn 1.000000 0.000000 0.000000
vn 1.000000 0.000000 0.000000
vn 1.000000 0.000000 0.000000
vn 1.000000 0.000000 0.000000
vn 1.000000 0.000000 0.000000
vn 1.000000 0.000000 0.000000
vn 0.000000 0.000000 -1.000000
vn 0.000000 0.000000 -1.000000
vn 0.000000 0.000000 -1.000000
vn 0.000000 0.000000 -1.000000
vn 0.000000 -1.000000 0.000000
vn 0.000000 -1.000000 0.000000
vn 0.000000 -1.000000 0.000000
vn 0.000000 -1.000000 0.000000
vn 0.000000 -1.000000 0.000000
vn 0.000000 -1.000000 0.000000
vn 0.000000 -1.000000 0.000000
vn 0.000000 -1.000000 0.000000
vn 0.000000 -1.000000 0.000000
vn 0.000000 -1.000000 0.000000
vn 0.000000 -1.000000 0.000000
vn 0.000000 -1.000000 0.000000
vn 0.000000 -1.000000 0.000000
vn 0.000000 -1.000000 0.000000
vn 0.000000 -1.000000 0.000000
vn 0.000000 -1.000000 0.000000
vn 0.000000 -1.000000 0.000000
vn 0.000000 -1.000000 0.000000
vn 0.000000 -1.000000 0.000000
vn 0.000000 -1.000000 0.000000
vn 0.000000 -1.000000 0.000000
vn 0.000000 -1.000000 0.000000
vn 0.000000 -1.000000 0.000000
vn 0.000000 -1.000000 0.000000
vn 0.000000 -1.000000 0.000000
vn 0.000000 -1.000000 0.000000
vn 0.000000 -1.000000 0.000000
vn 0.000000 -1.000000 0.000000
vn -1.000000 0.000000 0.000000
vn -1.000000 0.000000 0.000000
vn -1.000000 0.000000 0.000000
vn -1.000000 0.000000 0.000000
vn -1.000000 0.000000 0.000000
vn -1.000000 0.000000 0.000000
vn -1.000000 0.000000 0.000000
vn -1.000000 0.000000 0.000000
vn -1.000000 0.000000 0.000000
vn -1.000000 0.000000 0.000000
vn -1.000000 0.000000 0.000000
vn -1.000000 0.000000 0.000000
vn -1.000000 0.000000 0.000000
vn -1.000000 0.000000 0.000000
vn -1.000000 0.000000 0.000000
vn -1.000000 0.000000 0.000000
vn -1.000000 0.000000 0.000000
vn -1.000000 0.000000 0.000000
vn -1.000000 0.000000 0.000000
vn -1.000000 0.000000 0.000000
vn -1.000000 0.000000 0.000000
vn -1.000000 0.000000 0.000000
vn -1.000000 0.000000 0.000000
vn -1.000000 0.000000 0.000000
vn 0.000000 1.000000 0.000000
vn 0.000000 1.000000 0.000000
vn 0.000000 1.000000 0.000000
vn 0.000000 1.000000 0.000000
vn 0.000000 1.000000 0.000000
vn 0.000000 1.000000 0.000000
vn 0.000000 1.000000 0.000000
vn 0.000000 1.000000 0.000000
vn 0.000000 1.000000 0.000000
vn 0.000000 1.000000 0.000000
vn 0.000000 1.000000 0.000000
vn 0.000000 1.000000 0.000000
vn 0.000000 1.000000 0.000000
vn 0.000000 1.000000 0.000000
vn 0.000000 1.000000 0.000000
vn 0.000000 1.000000 0.000000
vn 0.000000 1.000000 0.000000
vn 0.000000 1.000000 0.000000
vn 0.000000 1.000000 0.000000
vn 0.000000 1.000000 0.000000
vn 0.000000 1.000000 0.000000
vn 0.000000 1.000000 0.000000
vn 0.000000 1.000000 0.000000
vn 0.000000 1.000000 0.000000
vn 0.000000 1.000000 0.000000
vn 0.000000 1.000000 0.000000
vn 0.000000 1.000000 0.000000
vn 0.000000 1.000000 0.000000
vn 0.000000 0.000000 1.000000
vn 0.000000 0.000000 1.000000
vn 0.000000 0.000000 1.000000
vn 0.000000 0.000000 1.000000
usemtl Steel_-_Satin
f 1/1/1 2/2/2 4/3/3
f 4/3/3 2/2/2 3/4/4
f 5/5/5 6/6/6 8/7/7
f 8/7/7 6/6/6 7/8/8
f 3/9/9 8/10/10 4/11/11
f 4/11/11 8/10/10 7/12/12
f 2/13/13 1/14/14 12/15/15
f 12/15/15 1/14/14 9/16/16
f 12/15/15 9/16/16 11/17/17
f 11/17/17 9/16/16 10/18/18
f 6/19/19 5/20/20 32/21/21
f 32/21/21 5/20/20 13/22/22
f 32/21/21 13/22/22 31/23/23
f 31/23/23 13/22/22 14/24/24
f 31/23/23 14/24/24 30/25/25
f 30/25/25 14/24/24 15/26/26
f 30/25/25 15/26/26 29/27/27
f 29/27/27 15/26/26 16/28/28
f 29/27/27 16/28/28 28/29/29
f 28/29/29 16/28/28 17/30/30
f 28/29/29 17/30/30 27/31/31
f 27/31/31 17/30/30 18/32/32
f 27/31/31 18/32/32 26/33/33
f 26/33/33 18/32/32 19/34/34
f 26/33/33 19/34/34 25/35/35
f 25/35/35 19/34/34 20/36/36
f 25/35/35 20/36/36 24/37/37
f 24/37/37 20/36/36 21/38/38
f 24/37/37 21/38/38 23/39/39
f 23/39/39 21/38/38 22/40/40
f 10/41/41 33/42/42 11/43/43
f 11/43/43 33/42/42 34/44/44
f 32/45/45 44/46/46 6/47/47
f 6/47/47 44/46/46 45/48/48
f 6/47/47 45/48/48 1/49/49
f 1/49/49 45/48/48 9/50/50
f 9/50/50 45/48/48 33/51/51
f 9/50/50 33/51/51 10/52/52
f 44/46/46 32/45/45 43/53/53
f 43/53/53 32/45/45 31/54/54
f 43/53/53 31/54/54 42/55/55
f 42/55/55 31/54/54 30/56/56
f 42/55/55 30/56/56 41/57/57
f 41/57/57 30/56/56 29/58/58
f 41/57/57 29/58/58 40/59/59
f 40/59/59 29/58/58 28/60/60
f 40/59/59 28/60/60 39/61/61
f 39/61/61 28/60/60 27/62/62
f 39/61/61 27/62/62 38/63/63
f 38/63/63 27/62/62 26/64/64
f 38/63/63 26/64/64 37/65/65
f 37/65/65 26/64/64 25/66/66
f 37/65/65 25/66/66 36/67/67
f 36/67/67 25/66/66 24/68/68
f 36/67/67 24/68/68 35/69/69
f 35/69/69 24/68/68 23/70/70
f 1/49/49 4/71/71 6/47/47
f 6/47/47 4/71/71 7/72/72
f 34/73/73 33/74/74 56/75/75
f 56/75/75 33/74/74 45/76/76
f 56/75/75 45/76/76 55/77/77
f 55/77/77 45/76/76 44/78/78
f 55/77/77 44/78/78 54/79/79
f 54/79/79 44/78/78 43/80/80
f 54/79/79 43/80/80 53/81/81
f 53/81/81 43/80/80 42/82/82
f 53/81/81 42/82/82 52/83/83
f 52/83/83 42/82/82 41/84/84
f 52/83/83 41/84/84 51/85/85
f 51/85/85 41/84/84 40/86/86
f 51/85/85 40/86/86 50/87/87
f 50/87/87 40/86/86 39/88/88
f 50/87/87 39/88/88 49/89/89
f 49/89/89 39/88/88 38/90/90
f 49/89/89 38/90/90 48/91/91
f 48/91/91 38/90/90 37/92/92
f 48/91/91 37/92/92 47/93/93
f 47/93/93 37/92/92 36/94/94
f 47/93/93 36/94/94 46/95/95
f 46/95/95 36/94/94 35/96/96
f 11/97/97 34/98/98 12/99/99
f 12/99/99 34/98/98 56/100/100
f 12/99/99 56/100/100 2/101/101
f 2/101/101 56/100/100 5/102/102
f 2/101/101 5/102/102 8/103/103
f 56/100/100 55/104/104 5/102/102
f 5/102/102 55/104/104 13/105/105
f 13/105/105 55/104/104 54/106/106
f 13/105/105 54/106/106 14/107/107
f 14/107/107 54/106/106 53/108/108
f 14/107/107 53/108/108 15/109/109
f 15/109/109 53/108/108 52/110/110
f 15/109/109 52/110/110 16/111/111
f 16/111/111 52/110/110 51/112/112
f 16/111/111 51/112/112 17/113/113
f 17/113/113 51/112/112 50/114/114
f 17/113/113 50/114/114 18/115/115
f 18/115/115 50/114/114 49/116/116
f 18/115/115 49/116/116 19/117/117
f 19/117/117 49/116/116 48/118/118
f 19/117/117 48/118/118 20/119/119
f 20/119/119 48/118/118 47/120/120
f 20/119/119 47/120/120 21/121/121
f 21/121/121 47/120/120 46/122/122
f 21/121/121 46/122/122 22/123/123
f 8/103/103 3/124/124 2/101/101
f 22/125/125 46/126/126 23/127/127
f 23/127/127 46/126/126 35/128/128
# 56 vertices
# 128 texture params
# 128 normals
# 108 facets

# 1 groups
