# WaveFront *.obj file (generated by Autodesk ATF)

mtllib z_height.mtl

g height

v 1.500000 34.000011 1.568651
v 1.500000 34.000011 -1.431349
v 3.000000 34.000011 -1.431349
v 3.000000 34.000011 1.568651
v 1.500000 38.000011 -1.431349
v 1.500000 38.000011 1.568651
v 3.000000 38.000011 1.568651
v 3.000000 38.000011 -1.431349
v 1.500000 48.000011 -1.431349
v 1.500000 48.000011 1.568651
v -0.500000 0.000011 0.068651
v -0.482963 0.000011 0.198061
v -0.433013 0.000011 0.318651
v -0.353553 0.000011 0.422205
v -0.250000 0.000011 0.501664
v -0.129410 0.000011 0.551614
v 0.000000 0.000011 0.568651
v 0.129410 0.000011 0.551614
v 0.250000 0.000011 0.501664
v 0.353553 0.000011 0.422205
v 0.433013 0.000011 0.318651
v 0.482963 0.000011 0.198061
v 0.500000 0.000011 0.068651
v 0.482963 0.000011 -0.060758
v 0.433013 0.000011 -0.181349
v 0.353553 0.000011 -0.284902
v 0.250000 0.000011 -0.364361
v 0.129410 0.000011 -0.414311
v 0.000000 0.000011 -0.431349
v -0.129410 0.000011 -0.414311
v -0.250000 0.000011 -0.364361
v -0.353553 0.000011 -0.284902
v -0.433013 0.000011 -0.181349
v -0.482963 0.000011 -0.060758
v -0.500000 8.000011 0.068651
v -0.482963 8.000011 -0.060758
v -0.433013 8.000011 -0.181349
v -0.353553 8.000011 -0.284902
v -0.250000 8.000011 -0.364361
v -0.129410 8.000011 -0.414311
v 0.000000 8.000011 -0.431349
v 0.129410 8.000011 -0.414311
v 0.250000 8.000011 -0.364361
v 0.353553 8.000011 -0.284902
v 0.433013 8.000011 -0.181349
v 0.482963 8.000011 -0.060758
v 0.500000 8.000011 0.068651
v 0.482963 8.000011 0.198061
v 0.433013 8.000011 0.318651
v 0.353553 8.000011 0.422205
v 0.250000 8.000011 0.501664
v 0.129410 8.000011 0.551614
v 0.000000 8.000011 0.568651
v -0.129410 8.000011 0.551614
v -0.250000 8.000011 0.501664
v -0.353553 8.000011 0.422205
v -0.433013 8.000011 0.318651
v -0.482963 8.000011 0.198061
v -0.500000 2.666677 0.068651
v -0.500000 5.333344 0.068651
v -0.482963 2.666677 0.198061
v -0.482963 5.333344 0.198061
v -0.433013 2.666677 0.318651
v -0.433013 5.333344 0.318651
v -0.353553 2.666677 0.422205
v -0.353553 5.333344 0.422205
v -0.250000 2.666677 0.501664
v -0.250000 5.333344 0.501664
v -0.129410 2.666677 0.551614
v -0.129410 5.333344 0.551614
v 0.000000 2.666677 0.568651
v 0.000000 5.333344 0.568651
v 0.129410 2.666677 0.551614
v 0.129410 5.333344 0.551614
v 0.250000 2.666677 0.501664
v 0.250000 5.333344 0.501664
v 0.353553 2.666677 0.422205
v 0.353553 5.333344 0.422205
v 0.433013 2.666677 0.318651
v 0.433013 5.333344 0.318651
v 0.482963 2.666677 0.198061
v 0.482963 5.333344 0.198061
v 0.500000 2.666677 0.068651
v 0.500000 5.333344 0.068651
v 0.482963 2.666677 -0.060758
v 0.482963 5.333344 -0.060758
v 0.433013 2.666677 -0.181349
v 0.433013 5.333344 -0.181349
v 0.353553 2.666677 -0.284902
v 0.353553 5.333344 -0.284902
v 0.250000 2.666677 -0.364361
v 0.250000 5.333344 -0.364361
v 0.129410 2.666677 -0.414311
v 0.129410 5.333344 -0.414311
v 0.000000 2.666677 -0.431349
v 0.000000 5.333344 -0.431349
v -0.129410 2.666677 -0.414311
v -0.129410 5.333344 -0.414311
v -0.250000 2.666677 -0.364361
v -0.250000 5.333344 -0.364361
v -0.353553 2.666677 -0.284902
v -0.353553 5.333344 -0.284902
v -0.433013 2.666677 -0.181349
v -0.433013 5.333344 -0.181349
v -0.482963 2.666677 -0.060758
v -0.482963 5.333344 -0.060758
v 1.500000 25.333344 -1.431349
v 1.500000 16.666677 -1.431349
v 1.500000 8.000011 -1.431349
v -1.500000 8.000011 -1.431349
v -1.500000 18.000011 -1.431349
v -1.500000 28.000011 -1.431349
v -1.500000 38.000011 -1.431349
v -1.500000 48.000011 -1.431349
v -1.500000 48.000011 1.568651
v -1.500000 38.000011 1.568651
v -1.500000 28.000011 1.568651
v -1.500000 18.000011 1.568651
v -1.500000 8.000011 1.568651
v 1.500000 8.000011 1.568651
v 1.500000 16.666677 1.568651
v 1.500000 25.333344 1.568651
vt 0.000000 0.000000 0.000000
vt 3.000000 0.000000 0.000000
vt 0.000000 1.500000 0.000000
vt 3.000000 1.500000 0.000000
vt 0.000000 0.000000 0.000000
vt 3.000000 0.000000 0.000000
vt 0.000000 1.500000 0.000000
vt 3.000000 1.500000 0.000000
vt 1.500000 2.000000 0.000000
vt -1.500000 2.000000 0.000000
vt 1.500000 -2.000000 0.000000
vt -1.500000 -2.000000 0.000000
vt 17.000000 -1.500000 0.000000
vt 27.000000 -1.500000 0.000000
vt 17.000000 1.500000 0.000000
vt 27.000000 1.500000 0.000000
vt -8.000000 1.439897 0.000000
vt -5.333333 1.439897 0.000000
vt -8.000000 1.570796 0.000000
vt -5.333333 1.570796 0.000000
vt -8.000000 -1.570796 0.000000
vt -5.333333 -1.570796 0.000000
vt -8.000000 -1.439897 0.000000
vt -5.333333 -1.439897 0.000000
vt -8.000000 -1.308997 0.000000
vt -5.333333 -1.308997 0.000000
vt -8.000000 -1.178097 0.000000
vt -5.333333 -1.178097 0.000000
vt -8.000000 -1.047198 0.000000
vt -5.333333 -1.047198 0.000000
vt -8.000000 -0.916298 0.000000
vt -5.333333 -0.916298 0.000000
vt -8.000000 -0.785398 0.000000
vt -5.333333 -0.785398 0.000000
vt -8.000000 -0.654498 0.000000
vt -5.333333 -0.654498 0.000000
vt -8.000000 -0.523599 0.000000
vt -5.333333 -0.523599 0.000000
vt -8.000000 -0.392699 0.000000
vt -5.333333 -0.392699 0.000000
vt -8.000000 -0.261799 0.000000
vt -5.333333 -0.261799 0.000000
vt -8.000000 -0.130900 0.000000
vt -5.333333 -0.130900 0.000000
vt -8.000000 0.000000 0.000000
vt -5.333333 0.000000 0.000000
vt -8.000000 0.130900 0.000000
vt -5.333333 0.130900 0.000000
vt -8.000000 0.261799 0.000000
vt -5.333333 0.261799 0.000000
vt -8.000000 0.392699 0.000000
vt -5.333333 0.392699 0.000000
vt -8.000000 0.523599 0.000000
vt -5.333333 0.523599 0.000000
vt -8.000000 0.654498 0.000000
vt -5.333333 0.654498 0.000000
vt -8.000000 0.785398 0.000000
vt -5.333333 0.785398 0.000000
vt -8.000000 0.916298 0.000000
vt -5.333333 0.916298 0.000000
vt -8.000000 1.047198 0.000000
vt -5.333333 1.047198 0.000000
vt -8.000000 1.178097 0.000000
vt -5.333333 1.178097 0.000000
vt -8.000000 1.308997 0.000000
vt -5.333333 1.308997 0.000000
vt 0.000000 -1.439897 0.000000
vt -2.666667 -1.439897 0.000000
vt -0.000000 -1.570796 0.000000
vt -2.666667 -1.570796 0.000000
vt -0.000000 1.570796 0.000000
vt -2.666667 1.570796 0.000000
vt -0.000000 1.439897 0.000000
vt -2.666667 1.439897 0.000000
vt -0.000000 1.308997 0.000000
vt -2.666667 1.308997 0.000000
vt -0.000000 1.178097 0.000000
vt -2.666667 1.178097 0.000000
vt -0.000000 1.047198 0.000000
vt -2.666667 1.047198 0.000000
vt -0.000000 0.916298 0.000000
vt -2.666667 0.916298 0.000000
vt -0.000000 0.785398 0.000000
vt -2.666667 0.785398 0.000000
vt -0.000000 0.654498 0.000000
vt -2.666667 0.654498 0.000000
vt -0.000000 0.523599 0.000000
vt -2.666667 0.523599 0.000000
vt -0.000000 0.392699 0.000000
vt -2.666667 0.392699 0.000000
vt -0.000000 0.261799 0.000000
vt -2.666667 0.261799 0.000000
vt -0.000000 0.130900 0.000000
vt -2.666667 0.130900 0.000000
vt -0.000000 0.000000 0.000000
vt -2.666667 0.000000 0.000000
vt -0.000000 -0.130900 0.000000
vt -2.666667 -0.130900 0.000000
vt -0.000000 -0.261799 0.000000
vt -2.666667 -0.261799 0.000000
vt -0.000000 -0.392699 0.000000
vt -2.666667 -0.392699 0.000000
vt -0.000000 -0.523599 0.000000
vt -2.666667 -0.523599 0.000000
vt -0.000000 -0.654498 0.000000
vt -2.666667 -0.654498 0.000000
vt -0.000000 -0.785398 0.000000
vt -2.666667 -0.785398 0.000000
vt 0.000000 -0.916298 0.000000
vt -2.666667 -0.916298 0.000000
vt 0.000000 -1.047198 0.000000
vt -2.666667 -1.047198 0.000000
vt 0.000000 -1.178097 0.000000
vt -2.666667 -1.178097 0.000000
vt 0.000000 -1.308997 0.000000
vt -2.666667 -1.308997 0.000000
vt -0.482963 -0.129410 0.000000
vt 0.482963 -0.129410 0.000000
vt -0.500000 0.000000 0.000000
vt 0.500000 0.000000 0.000000
vt -0.482963 0.129410 0.000000
vt 0.482963 0.129410 0.000000
vt -0.433013 0.250000 0.000000
vt 0.433013 0.250000 0.000000
vt -0.353553 0.353553 0.000000
vt 0.353553 0.353553 0.000000
vt -0.250000 0.433013 0.000000
vt 0.250000 0.433013 0.000000
vt -0.129410 0.482963 0.000000
vt 0.129410 0.482963 0.000000
vt 0.000000 0.500000 0.000000
vt 0.433013 -0.250000 0.000000
vt -0.433013 -0.250000 0.000000
vt 0.353553 -0.353553 0.000000
vt -0.353553 -0.353553 0.000000
vt 0.250000 -0.433013 0.000000
vt -0.250000 -0.433013 0.000000
vt 0.129410 -0.482963 0.000000
vt -0.129410 -0.482963 0.000000
vt 0.000000 -0.500000 0.000000
vt 22.666667 0.000000 0.000000
vt 20.000000 3.000000 0.000000
vt 14.000000 0.000000 0.000000
vt 10.000000 3.000000 0.000000
vt 10.000000 0.000000 0.000000
vt 0.000000 3.000000 0.000000
vt -0.000000 0.000000 0.000000
vt 30.000000 3.000000 0.000000
vt 31.333333 0.000000 0.000000
vt 40.000000 3.000000 0.000000
vt 40.000000 0.000000 0.000000
vt 10.000000 -1.500000 0.000000
vt 14.000000 -1.500000 0.000000
vt -0.000000 0.000000 0.000000
vt 3.000000 0.000000 0.000000
vt 0.000000 3.000000 0.000000
vt 3.000000 3.000000 0.000000
vt 40.000000 0.000000 0.000000
vt 30.000000 3.000000 0.000000
vt 30.000000 0.000000 0.000000
vt 26.000000 0.000000 0.000000
vt 30.000000 -1.500000 0.000000
vt 26.000000 -1.500000 0.000000
vt 40.000000 3.000000 0.000000
vt 20.000000 3.000000 0.000000
vt 17.333333 0.000000 0.000000
vt 10.000000 3.000000 0.000000
vt 8.666667 0.000000 0.000000
vt 0.000000 3.000000 0.000000
vt 0.000000 0.000000 0.000000
vt 1.629410 1.982963 0.000000
vt 3.000000 3.000000 0.000000
vt 1.500000 2.000000 0.000000
vt 0.000000 3.000000 0.000000
vt 1.370590 1.982963 0.000000
vt 1.250000 1.933013 0.000000
vt 1.146447 1.853553 0.000000
vt 1.066987 1.750000 0.000000
vt 1.017037 1.629410 0.000000
vt 1.000000 1.500000 0.000000
vt 0.000000 0.000000 0.000000
vt 1.017037 1.370590 0.000000
vt 1.066987 1.250000 0.000000
vt 1.146447 1.146447 0.000000
vt 1.250000 1.066987 0.000000
vt 1.370590 1.017037 0.000000
vt 1.500000 1.000000 0.000000
vt 3.000000 0.000000 0.000000
vt 1.629410 1.017037 0.000000
vt 1.750000 1.066987 0.000000
vt 1.853553 1.146447 0.000000
vt 1.933013 1.250000 0.000000
vt 1.982963 1.370590 0.000000
vt 2.000000 1.500000 0.000000
vt 1.982963 1.629410 0.000000
vt 1.933013 1.750000 0.000000
vt 1.853553 1.853553 0.000000
vt 1.750000 1.933013 0.000000
vt -1.500000 -13.000000 0.000000
vt 1.500000 -13.000000 0.000000
vt -1.500000 -3.000000 0.000000
vt 1.500000 -3.000000 0.000000
vt -1.500000 7.000000 0.000000
vt 1.500000 7.000000 0.000000
vt -1.500000 17.000000 0.000000
vt 1.500000 17.000000 0.000000
vt -1.500000 27.000000 0.000000
vt 1.500000 27.000000 0.000000
vt 13.000000 1.500000 0.000000
vt 4.333333 1.500000 0.000000
vt 13.000000 -1.500000 0.000000
vt 4.333333 -1.500000 0.000000
vt -4.333333 1.500000 0.000000
vt -4.333333 -1.500000 0.000000
vt -13.000000 1.500000 0.000000
vt -13.000000 -1.500000 0.000000
vn 0.000000 -1.000000 0.000000
vn 0.000000 -1.000000 0.000000
vn 0.000000 -1.000000 0.000000
vn 0.000000 -1.000000 0.000000
vn 0.000000 1.000000 0.000000
vn 0.000000 1.000000 0.000000
vn 0.000000 1.000000 0.000000
vn 0.000000 1.000000 0.000000
vn 1.000000 0.000000 0.000000
vn 1.000000 0.000000 0.000000
vn 1.000000 0.000000 0.000000
vn 1.000000 0.000000 0.000000
vn 1.000000 -0.000000 -0.000000
vn 1.000000 -0.000000 -0.000000
vn 1.000000 -0.000000 -0.000000
vn 1.000000 -0.000000 -0.000000
vn -0.965926 -0.000000 0.258819
vn -0.965926 -0.000000 0.258819
vn -1.000000 -0.000000 0.000000
vn -1.000000 -0.000000 0.000000
vn -0.965926 -0.000000 -0.258819
vn -0.965926 -0.000000 -0.258819
vn -0.866025 -0.000000 -0.500000
vn -0.866025 -0.000000 -0.500000
vn -0.707107 -0.000000 -0.707107
vn -0.707107 -0.000000 -0.707107
vn -0.500000 -0.000000 -0.866025
vn -0.500000 -0.000000 -0.866025
vn -0.258819 -0.000000 -0.965926
vn -0.258819 -0.000000 -0.965926
vn 0.000000 -0.000000 -1.000000
vn 0.000000 -0.000000 -1.000000
vn 0.258819 -0.000000 -0.965926
vn 0.258819 -0.000000 -0.965926
vn 0.500000 -0.000000 -0.866025
vn 0.500000 -0.000000 -0.866025
vn 0.707107 -0.000000 -0.707107
vn 0.707107 -0.000000 -0.707107
vn 0.866025 -0.000000 -0.500000
vn 0.866025 -0.000000 -0.500000
vn 0.965926 -0.000000 -0.258819
vn 0.965926 -0.000000 -0.258819
vn 1.000000 0.000000 -0.000000
vn 1.000000 0.000000 -0.000000
vn 0.965926 0.000000 0.258819
vn 0.965926 0.000000 0.258819
vn 0.866025 0.000000 0.500000
vn 0.866025 0.000000 0.500000
vn 0.707107 0.000000 0.707107
vn 0.707107 0.000000 0.707107
vn 0.500000 0.000000 0.866025
vn 0.500000 0.000000 0.866025
vn 0.258819 0.000000 0.965926
vn 0.258819 0.000000 0.965926
vn 0.000000 0.000000 1.000000
vn 0.000000 0.000000 1.000000
vn -0.258819 -0.000000 0.965926
vn -0.258819 -0.000000 0.965926
vn -0.500000 -0.000000 0.866025
vn -0.500000 -0.000000 0.866025
vn -0.707107 -0.000000 0.707107
vn -0.707107 -0.000000 0.707107
vn -0.866025 -0.000000 0.500000
vn -0.866025 -0.000000 0.500000
vn -0.965926 -0.000000 -0.258819
vn -0.965926 -0.000000 -0.258819
vn -1.000000 -0.000000 -0.000000
vn -1.000000 -0.000000 -0.000000
vn -0.965926 -0.000000 0.258819
vn -0.965926 -0.000000 0.258819
vn -0.866025 -0.000000 0.500000
vn -0.866025 -0.000000 0.500000
vn -0.707107 -0.000000 0.707107
vn -0.707107 -0.000000 0.707107
vn -0.500000 -0.000000 0.866025
vn -0.500000 -0.000000 0.866025
vn -0.258819 -0.000000 0.965926
vn -0.258819 -0.000000 0.965926
vn 0.000000 0.000000 1.000000
vn 0.000000 0.000000 1.000000
vn 0.258819 0.000000 0.965926
vn 0.258819 0.000000 0.965926
vn 0.500000 0.000000 0.866025
vn 0.500000 0.000000 0.866025
vn 0.707107 0.000000 0.707107
vn 0.707107 0.000000 0.707107
vn 0.866025 0.000000 0.500000
vn 0.866025 0.000000 0.500000
vn 0.965926 0.000000 0.258819
vn 0.965926 0.000000 0.258819
vn 1.000000 0.000000 -0.000000
vn 1.000000 0.000000 -0.000000
vn 0.965926 -0.000000 -0.258819
vn 0.965926 -0.000000 -0.258819
vn 0.866025 -0.000000 -0.500000
vn 0.866025 -0.000000 -0.500000
vn 0.707107 -0.000000 -0.707107
vn 0.707107 -0.000000 -0.707107
vn 0.500000 -0.000000 -0.866025
vn 0.500000 -0.000000 -0.866025
vn 0.258819 -0.000000 -0.965926
vn 0.258819 -0.000000 -0.965926
vn 0.000000 -0.000000 -1.000000
vn 0.000000 -0.000000 -1.000000
vn -0.258819 -0.000000 -0.965926
vn -0.258819 -0.000000 -0.965926
vn -0.500000 -0.000000 -0.866025
vn -0.500000 -0.000000 -0.866025
vn -0.707107 -0.000000 -0.707107
vn -0.707107 -0.000000 -0.707107
vn -0.866025 -0.000000 -0.500000
vn -0.866025 -0.000000 -0.500000
vn 0.000000 -1.000000 0.000000
vn 0.000000 -1.000000 0.000000
vn 0.000000 -1.000000 0.000000
vn 0.000000 -1.000000 0.000000
vn 0.000000 -1.000000 0.000000
vn 0.000000 -1.000000 0.000000
vn 0.000000 -1.000000 0.000000
vn 0.000000 -1.000000 0.000000
vn 0.000000 -1.000000 0.000000
vn 0.000000 -1.000000 0.000000
vn 0.000000 -1.000000 0.000000
vn 0.000000 -1.000000 0.000000
vn 0.000000 -1.000000 0.000000
vn 0.000000 -1.000000 0.000000
vn 0.000000 -1.000000 0.000000
vn 0.000000 -1.000000 0.000000
vn 0.000000 -1.000000 0.000000
vn 0.000000 -1.000000 0.000000
vn 0.000000 -1.000000 0.000000
vn 0.000000 -1.000000 0.000000
vn 0.000000 -1.000000 0.000000
vn 0.000000 -1.000000 0.000000
vn 0.000000 -1.000000 0.000000
vn 0.000000 -1.000000 0.000000
vn 0.000000 0.000000 -1.000000
vn 0.000000 0.000000 -1.000000
vn 0.000000 0.000000 -1.000000
vn 0.000000 0.000000 -1.000000
vn 0.000000 0.000000 -1.000000
vn 0.000000 0.000000 -1.000000
vn 0.000000 0.000000 -1.000000
vn 0.000000 0.000000 -1.000000
vn 0.000000 0.000000 -1.000000
vn 0.000000 0.000000 -1.000000
vn 0.000000 0.000000 -1.000000
vn 0.000000 0.000000 -1.000000
vn 0.000000 0.000000 -1.000000
vn 0.000000 1.000000 0.000000
vn 0.000000 1.000000 0.000000
vn 0.000000 1.000000 0.000000
vn 0.000000 1.000000 0.000000
vn 0.000000 0.000000 1.000000
vn 0.000000 0.000000 1.000000
vn 0.000000 0.000000 1.000000
vn 0.000000 0.000000 1.000000
vn 0.000000 0.000000 1.000000
vn 0.000000 0.000000 1.000000
vn 0.000000 0.000000 1.000000
vn 0.000000 0.000000 1.000000
vn 0.000000 0.000000 1.000000
vn 0.000000 0.000000 1.000000
vn 0.000000 0.000000 1.000000
vn 0.000000 0.000000 1.000000
vn 0.000000 0.000000 1.000000
vn -0.000000 -1.000000 -0.000000
vn -0.000000 -1.000000 -0.000000
vn -0.000000 -1.000000 -0.000000
vn -0.000000 -1.000000 -0.000000
vn -0.000000 -1.000000 -0.000000
vn -0.000000 -1.000000 -0.000000
vn -0.000000 -1.000000 -0.000000
vn -0.000000 -1.000000 -0.000000
vn -0.000000 -1.000000 -0.000000
vn -0.000000 -1.000000 -0.000000
vn -0.000000 -1.000000 -0.000000
vn -0.000000 -1.000000 -0.000000
vn -0.000000 -1.000000 -0.000000
vn -0.000000 -1.000000 -0.000000
vn -0.000000 -1.000000 -0.000000
vn -0.000000 -1.000000 -0.000000
vn -0.000000 -1.000000 -0.000000
vn -0.000000 -1.000000 -0.000000
vn -0.000000 -1.000000 -0.000000
vn -0.000000 -1.000000 -0.000000
vn -0.000000 -1.000000 -0.000000
vn -0.000000 -1.000000 -0.000000
vn -0.000000 -1.000000 -0.000000
vn -0.000000 -1.000000 -0.000000
vn -0.000000 -1.000000 -0.000000
vn -0.000000 -1.000000 -0.000000
vn -0.000000 -1.000000 -0.000000
vn -0.000000 -1.000000 -0.000000
vn -1.000000 0.000000 0.000000
vn -1.000000 0.000000 0.000000
vn -1.000000 0.000000 0.000000
vn -1.000000 0.000000 0.000000
vn -1.000000 0.000000 0.000000
vn -1.000000 0.000000 0.000000
vn -1.000000 0.000000 0.000000
vn -1.000000 0.000000 0.000000
vn -1.000000 0.000000 0.000000
vn -1.000000 0.000000 0.000000
vn 1.000000 -0.000000 -0.000000
vn 1.000000 -0.000000 -0.000000
vn 1.000000 -0.000000 -0.000000
vn 1.000000 -0.000000 -0.000000
vn 1.000000 -0.000000 -0.000000
vn 1.000000 -0.000000 -0.000000
vn 1.000000 -0.000000 -0.000000
vn 1.000000 -0.000000 -0.000000
usemtl Steel_-_Satin
f 1/1/1 2/2/2 4/3/3
f 4/3/3 2/2/2 3/4/4
f 5/5/5 6/6/6 8/7/7
f 8/7/7 6/6/6 7/8/8
f 8/9/9 7/10/10 3/11/11
f 3/11/11 7/10/10 4/12/12
f 5/13/13 9/14/14 6/15/15
f 6/15/15 9/14/14 10/16/16
f 12/17/17 61/18/18 11/19/19
f 11/19/19 61/18/18 59/20/20
f 11/21/19 59/22/20 34/23/21
f 34/23/21 59/22/20 105/24/22
f 34/23/21 105/24/22 33/25/23
f 33/25/23 105/24/22 103/26/24
f 33/25/23 103/26/24 32/27/25
f 32/27/25 103/26/24 101/28/26
f 32/27/25 101/28/26 31/29/27
f 31/29/27 101/28/26 99/30/28
f 31/29/27 99/30/28 30/31/29
f 30/31/29 99/30/28 97/32/30
f 30/31/29 97/32/30 29/33/31
f 29/33/31 97/32/30 95/34/32
f 29/33/31 95/34/32 28/35/33
f 28/35/33 95/34/32 93/36/34
f 28/35/33 93/36/34 27/37/35
f 27/37/35 93/36/34 91/38/36
f 27/37/35 91/38/36 26/39/37
f 26/39/37 91/38/36 89/40/38
f 26/39/37 89/40/38 25/41/39
f 25/41/39 89/40/38 87/42/40
f 25/41/39 87/42/40 24/43/41
f 24/43/41 87/42/40 85/44/42
f 24/43/41 85/44/42 23/45/43
f 23/45/43 85/44/42 83/46/44
f 23/45/43 83/46/44 22/47/45
f 22/47/45 83/46/44 81/48/46
f 22/47/45 81/48/46 21/49/47
f 21/49/47 81/48/46 79/50/48
f 21/49/47 79/50/48 20/51/49
f 20/51/49 79/50/48 77/52/50
f 20/51/49 77/52/50 19/53/51
f 19/53/51 77/52/50 75/54/52
f 19/53/51 75/54/52 18/55/53
f 18/55/53 75/54/52 73/56/54
f 18/55/53 73/56/54 17/57/55
f 17/57/55 73/56/54 71/58/56
f 17/57/55 71/58/56 16/59/57
f 16/59/57 71/58/56 69/60/58
f 16/59/57 69/60/58 15/61/59
f 15/61/59 69/60/58 67/62/60
f 15/61/59 67/62/60 14/63/61
f 14/63/61 67/62/60 65/64/62
f 14/63/61 65/64/62 13/65/63
f 13/65/63 65/64/62 63/66/64
f 13/65/63 63/66/64 12/17/17
f 12/17/17 63/66/64 61/18/18
f 36/67/65 106/68/66 35/69/67
f 35/69/67 106/68/66 60/70/68
f 35/71/67 60/72/68 58/73/69
f 58/73/69 60/72/68 62/74/70
f 58/73/69 62/74/70 57/75/71
f 57/75/71 62/74/70 64/76/72
f 57/75/71 64/76/72 56/77/73
f 56/77/73 64/76/72 66/78/74
f 56/77/73 66/78/74 55/79/75
f 55/79/75 66/78/74 68/80/76
f 55/79/75 68/80/76 54/81/77
f 54/81/77 68/80/76 70/82/78
f 54/81/77 70/82/78 53/83/79
f 53/83/79 70/82/78 72/84/80
f 53/83/79 72/84/80 52/85/81
f 52/85/81 72/84/80 74/86/82
f 52/85/81 74/86/82 51/87/83
f 51/87/83 74/86/82 76/88/84
f 51/87/83 76/88/84 50/89/85
f 50/89/85 76/88/84 78/90/86
f 50/89/85 78/90/86 49/91/87
f 49/91/87 78/90/86 80/92/88
f 49/91/87 80/92/88 48/93/89
f 48/93/89 80/92/88 82/94/90
f 48/93/89 82/94/90 47/95/91
f 47/95/91 82/94/90 84/96/92
f 47/95/91 84/96/92 46/97/93
f 46/97/93 84/96/92 86/98/94
f 46/97/93 86/98/94 45/99/95
f 45/99/95 86/98/94 88/100/96
f 45/99/95 88/100/96 44/101/97
f 44/101/97 88/100/96 90/102/98
f 44/101/97 90/102/98 43/103/99
f 43/103/99 90/102/98 92/104/100
f 43/103/99 92/104/100 42/105/101
f 42/105/101 92/104/100 94/106/102
f 42/105/101 94/106/102 41/107/103
f 41/107/103 94/106/102 96/108/104
f 41/107/103 96/108/104 40/109/105
f 40/109/105 96/108/104 98/110/106
f 40/109/105 98/110/106 39/111/107
f 39/111/107 98/110/106 100/112/108
f 39/111/107 100/112/108 38/113/109
f 38/113/109 100/112/108 102/114/110
f 38/113/109 102/114/110 37/115/111
f 37/115/111 102/114/110 104/116/112
f 37/115/111 104/116/112 36/67/65
f 36/67/65 104/116/112 106/68/66
f 59/22/20 60/70/68 105/24/22
f 105/24/22 60/70/68 106/68/66
f 105/24/22 106/68/66 103/26/24
f 103/26/24 106/68/66 104/116/112
f 103/26/24 104/116/112 101/28/26
f 101/28/26 104/116/112 102/114/110
f 101/28/26 102/114/110 99/30/28
f 99/30/28 102/114/110 100/112/108
f 99/30/28 100/112/108 97/32/30
f 97/32/30 100/112/108 98/110/106
f 97/32/30 98/110/106 95/34/32
f 95/34/32 98/110/106 96/108/104
f 95/34/32 96/108/104 93/36/34
f 93/36/34 96/108/104 94/106/102
f 93/36/34 94/106/102 91/38/36
f 91/38/36 94/106/102 92/104/100
f 91/38/36 92/104/100 89/40/38
f 89/40/38 92/104/100 90/102/98
f 89/40/38 90/102/98 87/42/40
f 87/42/40 90/102/98 88/100/96
f 87/42/40 88/100/96 85/44/42
f 85/44/42 88/100/96 86/98/94
f 85/44/42 86/98/94 83/46/44
f 83/46/44 86/98/94 84/96/92
f 83/46/44 84/96/92 81/48/46
f 81/48/46 84/96/92 82/94/90
f 81/48/46 82/94/90 79/50/48
f 79/50/48 82/94/90 80/92/88
f 79/50/48 80/92/88 77/52/50
f 77/52/50 80/92/88 78/90/86
f 77/52/50 78/90/86 75/54/52
f 75/54/52 78/90/86 76/88/84
f 75/54/52 76/88/84 73/56/54
f 73/56/54 76/88/84 74/86/82
f 73/56/54 74/86/82 71/58/56
f 71/58/56 74/86/82 72/84/80
f 71/58/56 72/84/80 69/60/58
f 69/60/58 72/84/80 70/82/78
f 69/60/58 70/82/78 67/62/60
f 67/62/60 70/82/78 68/80/76
f 67/62/60 68/80/76 65/64/62
f 65/64/62 68/80/76 66/78/74
f 65/64/62 66/78/74 63/66/64
f 63/66/64 66/78/74 64/76/72
f 63/66/64 64/76/72 61/18/18
f 61/18/18 64/76/72 62/74/70
f 61/18/18 62/74/70 59/20/20
f 59/20/20 62/74/70 60/72/68
f 34/117/113 24/118/114 11/119/115
f 11/119/115 24/118/114 23/120/116
f 11/119/115 23/120/116 12/121/117
f 12/121/117 23/120/116 22/122/118
f 12/121/117 22/122/118 13/123/119
f 13/123/119 22/122/118 21/124/120
f 13/123/119 21/124/120 14/125/121
f 14/125/121 21/124/120 20/126/122
f 14/125/121 20/126/122 15/127/123
f 15/127/123 20/126/122 19/128/124
f 15/127/123 19/128/124 16/129/125
f 16/129/125 19/128/124 18/130/126
f 16/129/125 18/130/126 17/131/127
f 24/118/114 34/117/113 25/132/128
f 25/132/128 34/117/113 33/133/129
f 25/132/128 33/133/129 26/134/130
f 26/134/130 33/133/129 32/135/131
f 26/134/130 32/135/131 27/136/132
f 27/136/132 32/135/131 31/137/133
f 27/136/132 31/137/133 28/138/134
f 28/138/134 31/137/133 30/139/135
f 28/138/134 30/139/135 29/140/136
f 107/141/137 112/142/138 2/143/139
f 2/143/139 112/142/138 113/144/140
f 2/143/139 113/144/140 5/145/141
f 5/145/141 113/144/140 114/146/142
f 5/145/141 114/146/142 9/147/143
f 112/142/138 107/141/137 111/148/144
f 111/148/144 107/141/137 108/149/145
f 111/148/144 108/149/145 110/150/146
f 110/150/146 108/149/145 109/151/147
f 8/152/148 3/153/149 5/145/141
f 5/145/141 3/153/149 2/143/139
f 10/154/150 9/155/151 115/156/152
f 115/156/152 9/155/151 114/157/153
f 10/158/154 116/159/155 6/160/156
f 6/160/156 116/159/155 1/161/157
f 6/160/156 1/161/157 7/162/158
f 7/162/158 1/161/157 4/163/159
f 10/158/154 115/164/160 116/159/155
f 116/159/155 117/165/161 1/161/157
f 1/161/157 117/165/161 122/166/162
f 122/166/162 117/165/161 118/167/163
f 122/166/162 118/167/163 121/168/164
f 121/168/164 118/167/163 119/169/165
f 121/168/164 119/169/165 120/170/166
f 58/171/167 119/172/168 35/173/169
f 35/173/169 119/172/168 110/174/170
f 35/173/169 110/174/170 36/175/171
f 36/175/171 110/174/170 37/176/172
f 37/176/172 110/174/170 38/177/173
f 38/177/173 110/174/170 39/178/174
f 39/178/174 110/174/170 40/179/175
f 40/179/175 110/174/170 41/180/176
f 41/180/176 110/174/170 109/181/177
f 41/180/176 109/181/177 42/182/178
f 42/182/178 109/181/177 43/183/179
f 43/183/179 109/181/177 44/184/180
f 44/184/180 109/181/177 45/185/181
f 45/185/181 109/181/177 46/186/182
f 46/186/182 109/181/177 47/187/183
f 47/187/183 109/181/177 120/188/184
f 47/187/183 120/188/184 48/189/185
f 48/189/185 120/188/184 49/190/186
f 49/190/186 120/188/184 50/191/187
f 50/191/187 120/188/184 51/192/188
f 51/192/188 120/188/184 52/193/189
f 52/193/189 120/188/184 53/194/190
f 53/194/190 120/188/184 119/172/168
f 53/194/190 119/172/168 54/195/191
f 54/195/191 119/172/168 55/196/192
f 55/196/192 119/172/168 56/197/193
f 56/197/193 119/172/168 57/198/194
f 57/198/194 119/172/168 58/171/167
f 110/199/195 119/200/196 111/201/197
f 111/201/197 119/200/196 118/202/198
f 111/201/197 118/202/198 112/203/199
f 112/203/199 118/202/198 117/204/200
f 112/203/199 117/204/200 113/205/201
f 113/205/201 117/204/200 116/206/202
f 113/205/201 116/206/202 114/207/203
f 114/207/203 116/206/202 115/208/204
f 1/209/205 122/210/206 2/211/207
f 2/211/207 122/210/206 107/212/208
f 107/212/208 122/210/206 121/213/209
f 107/212/208 121/213/209 108/214/210
f 108/214/210 121/213/209 120/215/211
f 108/214/210 120/215/211 109/216/212
# 122 vertices
# 216 texture params
# 212 normals
# 240 facets

# 1 groups
